<svg width="51" height="51" viewBox="0 0 51 51" fill="none" xmlns="http://www.w3.org/2000/svg">
<path d="M42.0982 28.2374C42.6934 27.6126 42.6693 26.6234 42.0445 26.0282C41.4196 25.4332 40.4306 25.4572 39.8354 26.082L27.4302 39.1055L27.4302 8.40967C27.4302 7.54675 26.7306 6.84717 25.8677 6.84717C25.0048 6.84717 24.3052 7.54675 24.3052 8.40967L24.3052 39.1062L11.8994 26.082C11.3042 25.4572 10.3152 25.4332 9.69021 26.0282C9.06542 26.6234 9.04146 27.6126 9.63646 28.2374L24.3588 43.6934C24.6944 44.0456 25.1223 44.2539 25.5671 44.3183C25.6644 44.3372 25.7648 44.3472 25.8677 44.3472C25.9713 44.3472 26.0725 44.3371 26.1704 44.3179C26.6142 44.253 27.041 44.0449 27.3758 43.6934L42.0982 28.2374Z" fill="#212121"/>
</svg>
