<svg width="51" height="51" viewBox="0 0 51 51" fill="none" xmlns="http://www.w3.org/2000/svg">
<path d="M9.6362 22.957C9.04102 23.5818 9.06506 24.5709 9.68991 25.1661C10.3148 25.7611 11.3038 25.7372 11.899 25.1124L24.3042 12.0888V42.7847C24.3042 43.6476 25.0037 44.3472 25.8667 44.3472C26.7296 44.3472 27.4292 43.6476 27.4292 42.7847V12.0881L39.835 25.1124C40.4302 25.7372 41.4192 25.7611 42.0442 25.1661C42.669 24.5709 42.6929 23.5818 42.0979 22.957L27.3756 7.5009C27.04 7.14871 26.6121 6.94044 26.1673 6.87604C26.07 6.85711 25.9696 6.84717 25.8667 6.84717C25.7631 6.84717 25.6619 6.85723 25.564 6.87646C25.1202 6.94129 24.6933 7.14944 24.3585 7.5009L9.6362 22.957Z" fill="#212121"/>
</svg>
