<svg width="51" height="51" viewBox="0 0 51 51" fill="none" xmlns="http://www.w3.org/2000/svg">
<path d="M37.3698 7.17578C41.1092 7.17578 44.1406 10.2072 44.1406 13.9466V37.9049C44.1406 41.6443 41.1092 44.6758 37.3698 44.6758H13.4115C9.67202 44.6758 6.64062 41.6443 6.64062 37.9049V13.9466C6.64062 10.2072 9.67202 7.17578 13.4115 7.17578H37.3698ZM41.0156 18.6341H9.76562V37.9049C9.76562 39.9185 11.3979 41.5508 13.4115 41.5508H37.3698C39.3833 41.5508 41.0156 39.9185 41.0156 37.9049V18.6341ZM16.5365 31.1341C17.9747 31.1341 19.1406 32.2999 19.1406 33.7383C19.1406 35.1766 17.9747 36.3424 16.5365 36.3424C15.0982 36.3424 13.9323 35.1766 13.9323 33.7383C13.9323 32.2999 15.0982 31.1341 16.5365 31.1341ZM25.3906 31.1341C26.829 31.1341 27.9948 32.2999 27.9948 33.7383C27.9948 35.1766 26.829 36.3424 25.3906 36.3424C23.9523 36.3424 22.7865 35.1766 22.7865 33.7383C22.7865 32.2999 23.9523 31.1341 25.3906 31.1341ZM16.5365 22.8008C17.9747 22.8008 19.1406 23.9666 19.1406 25.4049C19.1406 26.8433 17.9747 28.0091 16.5365 28.0091C15.0982 28.0091 13.9323 26.8433 13.9323 25.4049C13.9323 23.9666 15.0982 22.8008 16.5365 22.8008ZM25.3906 22.8008C26.829 22.8008 27.9948 23.9666 27.9948 25.4049C27.9948 26.8433 26.829 28.0091 25.3906 28.0091C23.9523 28.0091 22.7865 26.8433 22.7865 25.4049C22.7865 23.9666 23.9523 22.8008 25.3906 22.8008ZM34.2448 22.8008C35.6831 22.8008 36.849 23.9666 36.849 25.4049C36.849 26.8433 35.6831 28.0091 34.2448 28.0091C32.8065 28.0091 31.6406 26.8433 31.6406 25.4049C31.6406 23.9666 32.8065 22.8008 34.2448 22.8008ZM37.3698 10.3008H13.4115C11.3979 10.3008 9.76562 11.9331 9.76562 13.9466V15.5091H41.0156V13.9466C41.0156 11.9331 39.3833 10.3008 37.3698 10.3008Z" fill="#212121"/>
</svg>
