<svg width="51" height="51" viewBox="0 0 51 51" fill="none" xmlns="http://www.w3.org/2000/svg">
<path d="M27.573 17.3209C34.174 17.3209 37.9186 21.6902 38.4634 26.967H38.6299C42.878 26.967 46.3217 30.4018 46.3217 34.6389C46.3217 38.876 42.878 42.3108 38.6299 42.3108H16.5159C12.2678 42.3108 8.82405 38.876 8.82405 34.6389C8.82405 30.4018 12.2678 26.967 16.5159 26.967H16.6825C17.2303 21.6556 20.9718 17.3209 27.573 17.3209ZM27.573 20.4409C23.2576 20.4409 19.4964 23.8435 19.4964 28.5435C19.4964 29.2881 18.8319 29.8724 18.0711 29.8724H16.6324C14.0054 29.8724 11.8757 31.9585 11.8757 34.5316C11.8757 37.1049 14.0054 39.1908 16.6324 39.1908H38.5134C41.1405 39.1908 43.2701 37.1049 43.2701 34.5316C43.2701 31.9585 41.1405 29.8724 38.5134 29.8724H37.0747C36.3138 29.8724 35.6494 29.2881 35.6494 28.5435C35.6494 23.7831 31.8882 20.4409 27.573 20.4409ZM9.58461 25.9781C9.88734 26.7089 9.59445 27.5379 8.92943 27.9251L8.73901 28.0195L6.80928 28.8189C6.01203 29.1491 5.09801 28.7706 4.76778 27.9733C4.46507 27.2424 4.75797 26.4135 5.42297 26.026L5.61341 25.9318L7.54311 25.1324C8.34039 24.8022 9.25439 25.1808 9.58461 25.9781ZM23.0992 15.9089L22.7417 16.0288C21.629 16.4219 20.6109 16.954 19.6995 17.6082C18.5882 17.2459 17.3459 17.2633 16.1803 17.7461C13.5849 18.8211 12.3524 21.7966 13.4274 24.392C13.5537 24.6968 13.7062 24.9829 13.8812 25.2487C12.8558 25.5349 11.8954 25.9899 11.0343 26.5804C10.8492 26.2677 10.6842 25.9354 10.5403 25.5879C8.80482 21.398 10.7945 16.5945 14.9844 14.859C17.7809 13.7007 20.8506 14.2017 23.0992 15.9089ZM6.61224 15.9736L6.83203 16.0463L8.76176 16.8456C9.55901 17.1759 9.93761 18.0899 9.60736 18.8872C9.30716 19.6119 8.52449 19.9907 7.78568 19.8055L7.56586 19.7328L5.63616 18.9334C4.83889 18.6032 4.4603 17.6892 4.79053 16.8919C5.09074 16.1672 5.87343 15.7884 6.61224 15.9736ZM14.5606 9.7519L14.6549 9.94232L15.4542 11.872C15.7845 12.6693 15.4059 13.5833 14.6086 13.9135C13.8778 14.2163 13.0489 13.9234 12.6614 13.2584L12.5671 13.0679L11.7678 11.1382C11.4376 10.3409 11.8162 9.42694 12.6134 9.09671C13.3442 8.79398 14.1732 9.08688 14.5606 9.7519ZM23.6301 9.08834C24.3549 9.38857 24.7336 10.1712 24.5484 10.91L24.4757 11.1299L23.6763 13.0596C23.3461 13.8568 22.4322 14.2354 21.6349 13.9052C20.9101 13.605 20.5313 12.8223 20.7166 12.0835L20.7893 11.8637L21.5886 9.93396C21.9188 9.13671 22.8328 8.75811 23.6301 9.08834Z" fill="#212121"/>
</svg>
