<svg width="51" height="51" viewBox="0 0 51 51" fill="none" xmlns="http://www.w3.org/2000/svg">
<path d="M28.1152 28.0259L29.9193 29.8299L33.5274 33.438L29.9193 37.0462L28.1152 38.8502" stroke="#212121" stroke-width="2.6" stroke-linecap="round" stroke-linejoin="round"/>
<path d="M7.12796 19.0659C5.5491 20.6448 4.66211 22.7862 4.66211 25.019C4.66211 27.2518 5.5491 29.3932 7.12796 30.9721C8.70681 32.5509 10.8482 33.4379 13.081 33.4379H33.527" stroke="#212121" stroke-width="2.6" stroke-linecap="round" stroke-linejoin="round"/>
<path d="M22.1816 22.0122L20.3776 20.2082L16.7695 16.6L20.3776 12.9919L22.1816 11.1879" stroke="#212121" stroke-width="2.6" stroke-linecap="round" stroke-linejoin="round"/>
<path d="M43.1689 30.9719C44.7478 29.3931 45.6348 27.2517 45.6348 25.0188C45.6348 22.786 44.7478 20.6446 43.1689 19.0658C41.5901 17.4869 39.4487 16.5999 37.2158 16.5999H16.7699" stroke="#212121" stroke-width="2.6" stroke-linecap="round" stroke-linejoin="round"/>
</svg>
