<svg width="51" height="51" viewBox="0 0 51 51" fill="none" xmlns="http://www.w3.org/2000/svg">
<path d="M4.48459 29.1623C4.48459 29.7389 4.57592 30.2945 4.74483 30.8155L4.48459 29.1623ZM4.48459 29.1623C4.48459 27.1988 6.07718 25.6039 8.03583 25.6039M4.48459 29.1623L8.03583 25.6039M8.03583 25.6039H8.03621M8.03583 25.6039H8.03621M8.03621 25.6039H8.0366M8.03621 25.6039H8.0366M8.0366 25.6039H8.03698M8.0366 25.6039H8.03698M8.03698 25.6039H8.03736M8.03698 25.6039H8.03736M8.03736 25.6039H8.03774M8.03736 25.6039H8.03774M8.03774 25.6039H8.03812M8.03774 25.6039H8.03812M8.03812 25.6039H8.03849M8.03812 25.6039H8.03849M8.03849 25.6039H8.03887M8.03849 25.6039H8.03887M8.03887 25.6039H8.03924M8.03887 25.6039H8.03924M8.03924 25.6039H8.03962M8.03924 25.6039H8.03962M8.03962 25.6039H8.03999M8.03962 25.6039H8.03999M8.03999 25.6039H8.04036M8.03999 25.6039H8.04036M8.04036 25.6039H8.04072M8.04036 25.6039H8.04072M8.04072 25.6039H8.04109M8.04072 25.6039H8.04109M8.04109 25.6039H8.04146M8.04109 25.6039H8.04146M8.04146 25.6039H8.04182M8.04146 25.6039H8.04182M8.04182 25.6039H8.04219M8.04182 25.6039H8.04219M8.04219 25.6039H8.04255M8.04219 25.6039H8.04255M8.04255 25.6039H8.04291M8.04255 25.6039H8.04291M8.04291 25.6039H8.04327M8.04291 25.6039H8.04327M8.04327 25.6039H8.04363M8.04327 25.6039H8.04363M8.04363 25.6039H8.04399M8.04363 25.6039H8.04399M8.04399 25.6039H8.04434M8.04399 25.6039H8.04434M8.04434 25.6039H8.0447M8.04434 25.6039H8.0447M8.0447 25.6039H8.04505M8.0447 25.6039H8.04505M8.04505 25.6039H8.04541M8.04505 25.6039H8.04541M8.04541 25.6039H8.04576M8.04541 25.6039H8.04576M8.04576 25.6039H8.04611M8.04576 25.6039H8.04611M8.04611 25.6039H8.04646M8.04611 25.6039H8.04646M8.04646 25.6039H8.04681M8.04646 25.6039H8.04681M8.04681 25.6039H8.04716M8.04681 25.6039H8.04716M8.04716 25.6039H8.0475M8.04716 25.6039H8.0475M8.0475 25.6039H8.04785M8.0475 25.6039H8.04785M8.04785 25.6039H8.04819M8.04785 25.6039H8.04819M8.04819 25.6039H8.04854M8.04819 25.6039H8.04854M8.04854 25.6039H8.04888M8.04854 25.6039H8.04888M8.04888 25.6039H8.04923M8.04888 25.6039H8.04923M8.04923 25.6039H8.04957M8.04923 25.6039H8.04957M8.04957 25.6039H8.04991M8.04957 25.6039H8.04991M8.04991 25.6039H8.05025M8.04991 25.6039H8.05025M8.05025 25.6039H8.05059M8.05025 25.6039H8.05059M8.05059 25.6039H8.05093M8.05059 25.6039H8.05093M8.05093 25.6039H8.05126M8.05093 25.6039H8.05126M8.05126 25.6039H8.0516M8.05126 25.6039H8.0516M8.0516 25.6039H8.05194M8.0516 25.6039H8.05194M8.05194 25.6039H8.05227M8.05194 25.6039H8.05227M8.05227 25.6039H8.05261M8.05227 25.6039H8.05261M8.05261 25.6039H8.05294M8.05261 25.6039H8.05294M8.05294 25.6039H8.05328M8.05294 25.6039H8.05328M8.05328 25.6039H8.05361M8.05328 25.6039H8.05361M8.05361 25.6039H8.05394M8.05361 25.6039H8.05394M8.05394 25.6039H8.05427M8.05394 25.6039H8.05427M8.05427 25.6039H8.05461M8.05427 25.6039H8.05461M8.05461 25.6039H8.05494M8.05461 25.6039H8.05494M8.05494 25.6039H8.05527M8.05494 25.6039H8.05527M8.05527 25.6039H8.05559M8.05527 25.6039H8.05559M8.05559 25.6039H8.05592M8.05559 25.6039H8.05592M8.05592 25.6039H8.05625M8.05592 25.6039H8.05625M8.05625 25.6039H8.05658M8.05625 25.6039H8.05658M8.05658 25.6039H8.05691M8.05658 25.6039H8.05691M8.05691 25.6039H8.05724M8.05691 25.6039H8.05724M8.05724 25.6039H8.05756M8.05724 25.6039H8.05756M8.05756 25.6039H8.05789M8.05756 25.6039H8.05789M8.05789 25.6039H8.05821M8.05789 25.6039H8.05821M8.05821 25.6039H8.05854M8.05821 25.6039H8.05854M8.05854 25.6039H8.05886M8.05854 25.6039H8.05886M8.05886 25.6039H8.05919M8.05886 25.6039H8.05919M8.05919 25.6039H8.05951M8.05919 25.6039H8.05951M8.05951 25.6039H8.05984M8.05951 25.6039H8.05984M8.05984 25.6039H8.06016M8.05984 25.6039H8.06016M8.06016 25.6039H8.06049M8.06016 25.6039H8.06049M8.06049 25.6039H8.06081M8.06049 25.6039H8.06081M8.06081 25.6039H8.06113M8.06081 25.6039H8.06113M8.06113 25.6039H8.06145M8.06113 25.6039H8.06145M8.06145 25.6039H8.06178M8.06145 25.6039H8.06178M8.06178 25.6039H8.0621M8.06178 25.6039H8.0621M8.0621 25.6039H8.06242M8.0621 25.6039H8.06242M8.06242 25.6039H8.06274M8.06242 25.6039H8.06274M8.06274 25.6039H8.06307M8.06274 25.6039H8.06307M8.06307 25.6039H8.06339M8.06307 25.6039H8.06339M8.06339 25.6039H8.06371M8.06339 25.6039H8.06371M8.06371 25.6039H8.06403M8.06371 25.6039H8.06403M8.06403 25.6039H8.06435M8.06403 25.6039H8.06435M8.06435 25.6039H8.06468M8.06435 25.6039H8.06468M8.06468 25.6039H8.065M8.06468 25.6039H8.065M8.065 25.6039H8.06532M8.065 25.6039H8.06532M8.06532 25.6039H8.06564M8.06532 25.6039H8.06564M8.06564 25.6039H8.06596M8.06564 25.6039H8.06596M8.06596 25.6039H8.06628M8.06596 25.6039H8.06628M8.06628 25.6039H8.06661M8.06628 25.6039H8.06661M8.06661 25.6039H8.06693M8.06661 25.6039H8.06693M8.06693 25.6039H8.06725M8.06693 25.6039H8.06725M8.06725 25.6039H8.06757M8.06725 25.6039H8.06757M8.06757 25.6039H8.06789M8.06757 25.6039H8.06789M8.06789 25.6039H8.06822M8.06789 25.6039H8.06822M8.06822 25.6039H8.06854M8.06822 25.6039H8.06854M8.06854 25.6039H8.06886M8.06854 25.6039H8.06886M8.06886 25.6039H8.06919M8.06886 25.6039H8.06919M8.06919 25.6039H8.06951M8.06919 25.6039H8.06951M8.06951 25.6039H8.06983M8.06951 25.6039H8.06983M8.06983 25.6039H8.07016M8.06983 25.6039H8.07016M8.07016 25.6039H8.07048M8.07016 25.6039H8.07048M8.07048 25.6039H8.0708M8.07048 25.6039H8.0708M8.0708 25.6039H8.07113M8.0708 25.6039H8.07113M8.07113 25.6039H8.07145M8.07113 25.6039H8.07145M8.07145 25.6039H8.07178M8.07145 25.6039H8.07178M8.07178 25.6039H8.0721M8.07178 25.6039H8.0721M8.0721 25.6039H8.07243M8.0721 25.6039H8.07243M8.07243 25.6039H8.07276M8.07243 25.6039H8.07276M8.07276 25.6039H8.07308M8.07276 25.6039H8.07308M8.07308 25.6039H8.07341M8.07308 25.6039H8.07341M8.07341 25.6039H8.07374M8.07341 25.6039H8.07374M8.07374 25.6039H8.07407M8.07374 25.6039H8.07407M8.07407 25.6039H8.0744M8.07407 25.6039H8.0744M8.0744 25.6039H8.07473M8.0744 25.6039H8.07473M8.07473 25.6039H8.07506M8.07473 25.6039H8.07506M8.07506 25.6039H8.07539M8.07506 25.6039H8.07539M8.07539 25.6039H8.07572M8.07539 25.6039H8.07572M8.07572 25.6039H8.07605M8.07572 25.6039H8.07605M8.07605 25.6039H8.07638M8.07605 25.6039H8.07638M8.07638 25.6039H8.07671M8.07638 25.6039H8.07671M8.07671 25.6039H8.07705M8.07671 25.6039H8.07705M8.07705 25.6039H8.07738M8.07705 25.6039H8.07738M8.07738 25.6039H8.07771M8.07738 25.6039H8.07771M8.07771 25.6039H8.07805M8.07771 25.6039H8.07805M8.07805 25.6039H8.07839M8.07805 25.6039H8.07839M8.07839 25.6039H8.07872M8.07839 25.6039H8.07872M8.07872 25.6039H8.07906M8.07872 25.6039H8.07906M8.07906 25.6039H8.0794M8.07906 25.6039H8.0794M8.0794 25.6039H8.07974M8.0794 25.6039H8.07974M8.07974 25.6039H8.08008M8.07974 25.6039H8.08008M8.08008 25.6039H8.08042M8.08008 25.6039H8.08042M8.08042 25.6039H8.08076M8.08042 25.6039H8.08076M8.08076 25.6039H8.0811M8.08076 25.6039H8.0811M8.0811 25.6039H8.08144M8.0811 25.6039H8.08144M8.08144 25.6039H8.08179M8.08144 25.6039H8.08179M8.08179 25.6039H8.08213M8.08179 25.6039H8.08213M8.08213 25.6039H8.08248M8.08213 25.6039H8.08248M8.08248 25.6039H8.08283M8.08248 25.6039H8.08283M8.08283 25.6039H8.08317M8.08283 25.6039H8.08317M8.08317 25.6039H8.08352M8.08317 25.6039H8.08352M8.08352 25.6039H8.08387M8.08352 25.6039H8.08387M8.08387 25.6039H8.08422M8.08387 25.6039H8.08422M8.08422 25.6039H8.08457M8.08422 25.6039H8.08457M8.08457 25.6039H8.08493M8.08457 25.6039H8.08493M8.08493 25.6039H8.08528M8.08493 25.6039H8.08528M8.08528 25.6039H8.08564M8.08528 25.6039H8.08564M8.08564 25.6039H8.08599M8.08564 25.6039H8.08599M8.08599 25.6039H8.08635M8.08599 25.6039H8.08635M8.08635 25.6039H8.08671M8.08635 25.6039H8.08671M8.08671 25.6039H8.08707M8.08671 25.6039H8.08707M8.08707 25.6039H8.08743M8.08707 25.6039H8.08743M8.08743 25.6039H8.08779M8.08743 25.6039H8.08779M8.08779 25.6039H8.08815M8.08779 25.6039H8.08815M8.08815 25.6039H8.08852M8.08815 25.6039H8.08852M8.08852 25.6039H8.08888M8.08852 25.6039H8.08888M8.08888 25.6039H8.08925M8.08888 25.6039H8.08925M8.08925 25.6039H8.08962M8.08925 25.6039H8.08962M8.08962 25.6039H8.08998M8.08962 25.6039H8.08998M8.08998 25.6039H8.09035M8.08998 25.6039H8.09035M8.09035 25.6039H8.09073M8.09035 25.6039H8.09073M8.09073 25.6039H8.0911M8.09073 25.6039H8.0911M8.0911 25.6039H8.09147M8.0911 25.6039H8.09147M8.09147 25.6039H8.09185M8.09147 25.6039H8.09185M8.09185 25.6039H8.09223M8.09185 25.6039H8.09223M8.09223 25.6039H8.09261M8.09223 25.6039H8.09261M8.09261 25.6039H8.09299M8.09261 25.6039H8.09299M8.09299 25.6039H8.09337M8.09299 25.6039H8.09337M8.09337 25.6039H8.09375M8.09337 25.6039H8.09375M8.09375 25.6039H8.09413M8.09375 25.6039H8.09413M8.09413 25.6039H8.09452M8.09413 25.6039H8.09452M8.09452 25.6039H8.09491M8.09452 25.6039H8.09491M8.09491 25.6039H8.0953M8.09491 25.6039H8.0953M8.0953 25.6039H8.09569M8.0953 25.6039H8.09569M8.09569 25.6039H8.09608M8.09569 25.6039H8.09608M8.09608 25.6039H8.09647M8.09608 25.6039H8.09647M8.09647 25.6039H8.09687M8.09647 25.6039H8.09687M8.09687 25.6039H8.09727M8.09687 25.6039H8.09727M8.09727 25.6039H8.09766M8.09727 25.6039H8.09766M8.09766 25.6039H8.09806M8.09766 25.6039H8.09806M8.09806 25.6039H8.09847M8.09806 25.6039H8.09847M8.09847 25.6039H8.09887M8.09847 25.6039H8.09887M8.09887 25.6039H8.09928M8.09887 25.6039H8.09928M8.09928 25.6039H8.09968M8.09928 25.6039H8.09968M8.09968 25.6039H8.10009M8.09968 25.6039H8.10009M8.10009 25.6039H8.1005M8.10009 25.6039H8.1005M8.1005 25.6039H8.10091M8.1005 25.6039H8.10091M8.10091 25.6039H8.10133M8.10091 25.6039H8.10133M8.10133 25.6039H8.10174M8.10133 25.6039H8.10174M8.10174 25.6039H8.10216M8.10174 25.6039H8.10216M8.10216 25.6039H8.10258M8.10216 25.6039H8.10258M8.10258 25.6039H8.103M8.10258 25.6039H8.103M8.103 25.6039H8.10343M8.103 25.6039H8.10343M8.10343 25.6039H8.10385M8.10343 25.6039H8.10385M8.10385 25.6039H8.10428M8.10385 25.6039H8.10428M8.10428 25.6039H8.10471M8.10428 25.6039H8.10471M8.10471 25.6039H8.10514M8.10471 25.6039H8.10514M8.10514 25.6039H8.10557M8.10514 25.6039H8.10557M8.10557 25.6039H8.10601M8.10557 25.6039H8.10601M8.10601 25.6039H8.10644M8.10601 25.6039H8.10644M8.10644 25.6039H8.10688M8.10644 25.6039H8.10688M8.10688 25.6039H8.10732M8.10688 25.6039H8.10732M8.10732 25.6039H8.10777M8.10732 25.6039H8.10777M8.10777 25.6039H8.10821M8.10777 25.6039H8.10821M8.10821 25.6039H8.10866M8.10821 25.6039H8.10866M8.10866 25.6039H8.10911M8.10866 25.6039H8.10911M8.10911 25.6039H8.10956M8.10911 25.6039H8.10956M8.10956 25.6039H8.11002M8.10956 25.6039H8.11002M8.11002 25.6039H8.11047M8.11002 25.6039H8.11047M8.11047 25.6039H8.11093M8.11047 25.6039H8.11093M8.11093 25.6039H8.11139M8.11093 25.6039H8.11139M8.11139 25.6039H8.11185M8.11139 25.6039H8.11185M8.11185 25.6039H8.11232M8.11185 25.6039H8.11232M8.11232 25.6039H8.11278M8.11232 25.6039H8.11278M8.11278 25.6039H8.11325M8.11278 25.6039H8.11325M8.11325 25.6039H8.11373M8.11325 25.6039H8.11373M8.11373 25.6039H8.1142M8.11373 25.6039H8.1142M8.1142 25.6039H8.11468M8.1142 25.6039H8.11468M8.11468 25.6039H8.11516M8.11468 25.6039H8.11516M8.11516 25.6039H8.11564M8.11516 25.6039H8.11564M8.11564 25.6039H8.11612M8.11564 25.6039H8.11612M8.11612 25.6039H8.11661M8.11612 25.6039H8.11661M8.11661 25.6039H8.11709M8.11661 25.6039H8.11709M8.11709 25.6039H8.11758M8.11709 25.6039H8.11758M8.11758 25.6039H8.11808M8.11758 25.6039H8.11808M8.11808 25.6039H8.11857M8.11808 25.6039H8.11857M8.11857 25.6039H8.11907M8.11857 25.6039H8.11907M8.11907 25.6039H8.11957M8.11907 25.6039H8.11957M8.11957 25.6039H8.12007M8.11957 25.6039H8.12007M8.12007 25.6039H8.12058M8.12007 25.6039H8.12058M8.12058 25.6039H8.12109M8.12058 25.6039H8.12109M8.12109 25.6039H8.1216M8.12109 25.6039H8.1216M8.1216 25.6039H8.12211M8.1216 25.6039H8.12211M8.12211 25.6039H8.12263M8.12211 25.6039H8.12263M8.12263 25.6039H8.12315M8.12263 25.6039H8.12315M8.12315 25.6039H8.12367M8.12315 25.6039H8.12367M8.12367 25.6039H8.12419M8.12367 25.6039H8.12419M8.12419 25.6039H8.12472M8.12419 25.6039H8.12472M8.12472 25.6039H8.12525M8.12472 25.6039H8.12525M8.12525 25.6039H8.12578M8.12525 25.6039H8.12578M8.12578 25.6039H8.12632M8.12578 25.6039H8.12632M8.12632 25.6039H8.12685M8.12632 25.6039H8.12685M8.12685 25.6039H8.12739M8.12685 25.6039H8.12739M8.12739 25.6039H8.12794M8.12739 25.6039H8.12794M8.12794 25.6039H8.12848M8.12794 25.6039H8.12848M8.12848 25.6039H8.12903M8.12848 25.6039H8.12903M8.12903 25.6039H8.12958M8.12903 25.6039H8.12958M8.12958 25.6039H8.13014M8.12958 25.6039H8.13014M8.13014 25.6039H8.13069M8.13014 25.6039H8.13069M8.13069 25.6039H8.13126M8.13069 25.6039H8.13126M8.13126 25.6039H8.13182M8.13126 25.6039H8.13182M8.13182 25.6039H8.13238M8.13182 25.6039H8.13238M8.13238 25.6039H8.13295M8.13238 25.6039H8.13295M8.13295 25.6039H8.13353M8.13295 25.6039H8.13353M8.13353 25.6039H8.1341M8.13353 25.6039H8.1341M8.1341 25.6039H8.13468M8.1341 25.6039H8.13468M8.13468 25.6039H8.13526M8.13468 25.6039H8.13526M8.13526 25.6039H8.13584M8.13526 25.6039H8.13584M8.13584 25.6039H8.13643M8.13584 25.6039H8.13643M8.13643 25.6039H8.13702M8.13643 25.6039H8.13702M8.13702 25.6039H8.13761M8.13702 25.6039H8.13761M8.13761 25.6039H8.13821M8.13761 25.6039H8.13821M8.13821 25.6039H8.13881M8.13821 25.6039H8.13881M8.13881 25.6039H8.13941M8.13881 25.6039H8.13941M8.13941 25.6039H8.14002M8.13941 25.6039H8.14002M8.14002 25.6039H8.14063M8.14002 25.6039H8.14063M8.14063 25.6039H8.14124M8.14063 25.6039H8.14124M8.14124 25.6039H8.14185M8.14124 25.6039H8.14185M8.14185 25.6039H8.14247M8.14185 25.6039H8.14247M8.14247 25.6039H8.1431M8.14247 25.6039H8.1431M8.1431 25.6039H8.14372M8.1431 25.6039H8.14372M8.14372 25.6039H8.14435M8.14372 25.6039H8.14435M8.14435 25.6039H8.14498M8.14435 25.6039H8.14498M8.14498 25.6039H8.14562M8.14498 25.6039H8.14562M8.14562 25.6039H8.14625M8.14562 25.6039H8.14625M8.14625 25.6039H8.1469M8.14625 25.6039H8.1469M8.1469 25.6039H8.14754M8.1469 25.6039H8.14754M8.14754 25.6039H8.14819M8.14754 25.6039H8.14819M8.14819 25.6039H8.14884M8.14819 25.6039H8.14884M8.14884 25.6039H8.1495M8.14884 25.6039H8.1495M8.1495 25.6039H8.15015M8.1495 25.6039H8.15015M8.15015 25.6039H8.15082M8.15015 25.6039H8.15082M8.15082 25.6039H8.15148M8.15082 25.6039H8.15148M8.15148 25.6039H8.15215M8.15148 25.6039H8.15215M8.15215 25.6039H8.15282M8.15215 25.6039H8.15282M8.15282 25.6039H8.1535M8.15282 25.6039H8.1535M8.1535 25.6039H8.15418M8.1535 25.6039H8.15418M8.15418 25.6039H8.15486M8.15418 25.6039H8.15486M8.15486 25.6039H8.15555M8.15486 25.6039H8.15555M8.15555 25.6039H8.15624M8.15555 25.6039H8.15624M8.15624 25.6039H8.15694M8.15624 25.6039H8.15694M8.15694 25.6039H8.15763M8.15694 25.6039H8.15763M8.15763 25.6039H8.15834M8.15763 25.6039H8.15834M8.15834 25.6039H8.15904M8.15834 25.6039H8.15904M8.15904 25.6039H8.15975M8.15904 25.6039H8.15975M8.15975 25.6039H8.16046M8.15975 25.6039H8.16046M8.16046 25.6039H8.16118M8.16046 25.6039H8.16118M8.16118 25.6039H8.1619M8.16118 25.6039H8.1619M8.1619 25.6039H8.16262M8.1619 25.6039H8.16262M8.16262 25.6039H8.16335M8.16262 25.6039H8.16335M8.16335 25.6039H8.16408M8.16335 25.6039H8.16408M8.16408 25.6039H8.16482M8.16408 25.6039H8.16482M8.16482 25.6039H8.16555M8.16482 25.6039H8.16555M8.16555 25.6039H8.1663M8.16555 25.6039H8.1663M8.1663 25.6039H8.16704M8.1663 25.6039H8.16704M8.16704 25.6039H8.1678M8.16704 25.6039H8.1678M8.1678 25.6039H8.16855M8.1678 25.6039H8.16855M8.16855 25.6039H8.16931M8.16855 25.6039H8.16931M8.16931 25.6039H8.17007M8.16931 25.6039H8.17007M8.17007 25.6039H8.17084M8.17007 25.6039H8.17084M8.17084 25.6039H8.17161M8.17084 25.6039H8.17161M8.17161 25.6039H8.17238M8.17161 25.6039H8.17238M8.17238 25.6039H8.17316M8.17238 25.6039H8.17316M8.17316 25.6039H8.17394M8.17316 25.6039H8.17394M8.17394 25.6039H8.17473M8.17394 25.6039H8.17473M8.17473 25.6039H8.17552M8.17473 25.6039H8.17552M8.17552 25.6039H8.17631M8.17552 25.6039H8.17631M8.17631 25.6039H8.17711M8.17631 25.6039H8.17711M8.17711 25.6039H8.17791M8.17711 25.6039H8.17791M8.17791 25.6039H8.17872M8.17791 25.6039H8.17872M8.17872 25.6039H8.17953M8.17872 25.6039H8.17953M8.17953 25.6039H8.18035M8.17953 25.6039H8.18035M8.18035 25.6039H8.18117M8.18035 25.6039H8.18117M8.18117 25.6039H8.18199M8.18117 25.6039H8.18199M8.18199 25.6039H8.18282M8.18199 25.6039H8.18282M8.18282 25.6039H8.18365M8.18282 25.6039H8.18365M8.18365 25.6039H8.18449M8.18365 25.6039H8.18449M8.18449 25.6039H8.18533M8.18449 25.6039H8.18533M8.18533 25.6039H8.18617M8.18533 25.6039H8.18617M8.18617 25.6039H8.18702M8.18617 25.6039H8.18702M8.18702 25.6039H8.18787M8.18702 25.6039H8.18787M8.18787 25.6039H8.18873M8.18787 25.6039H8.18873M8.18873 25.6039H8.1896M8.18873 25.6039H8.1896M8.1896 25.6039H8.19046M8.1896 25.6039H8.19046M8.19046 25.6039H8.19133M8.19046 25.6039H8.19133M8.19133 25.6039H8.19221M8.19133 25.6039H8.19221M8.19221 25.6039H8.19309M8.19221 25.6039H8.19309M8.19309 25.6039H8.19397M8.19309 25.6039H8.19397M8.19397 25.6039H8.19486M8.19397 25.6039H8.19486M8.19486 25.6039H8.19575M8.19486 25.6039H8.19575M8.19575 25.6039H8.19665M8.19575 25.6039H8.19665M8.19665 25.6039H8.19755M8.19665 25.6039H8.19755M8.19755 25.6039H8.19846M8.19755 25.6039H8.19846M8.19846 25.6039H8.19937M8.19846 25.6039H8.19937M8.19937 25.6039H8.20029M8.19937 25.6039H8.20029M8.20029 25.6039H8.20121M8.20029 25.6039H8.20121M8.20121 25.6039H8.20213M8.20121 25.6039H8.20213M8.20213 25.6039H8.20306M8.20213 25.6039H8.20306M8.20306 25.6039H8.204M8.20306 25.6039H8.204M8.204 25.6039H8.20494M8.204 25.6039H8.20494M8.20494 25.6039H8.20588M8.20494 25.6039H8.20588M8.20588 25.6039H8.20683M8.20588 25.6039H8.20683M8.20683 25.6039H8.20778M8.20683 25.6039H8.20778M8.20778 25.6039H8.20874M8.20778 25.6039H8.20874M8.20874 25.6039H8.2097M8.20874 25.6039H8.2097M8.2097 25.6039H8.21067M8.2097 25.6039H8.21067M8.21067 25.6039H8.21164M8.21067 25.6039H8.21164M8.21164 25.6039H8.21262M8.21164 25.6039H8.21262M8.21262 25.6039H8.2136M8.21262 25.6039H8.2136M8.2136 25.6039H8.21459M8.2136 25.6039H8.21459M8.21459 25.6039H8.21558M8.21459 25.6039H8.21558M8.21558 25.6039H8.21658M8.21558 25.6039H8.21658M8.21658 25.6039H8.21758M8.21658 25.6039H8.21758M8.21758 25.6039H8.21858M8.21758 25.6039H8.21858M8.21858 25.6039H8.2196M8.21858 25.6039H8.2196M8.2196 25.6039H8.22061M8.2196 25.6039H8.22061M8.22061 25.6039H8.22163M8.22061 25.6039H8.22163M8.22163 25.6039H8.22266M8.22163 25.6039H8.22266M8.22266 25.6039H8.22369M8.22266 25.6039H8.22369M8.22369 25.6039H8.22473M8.22369 25.6039H8.22473M8.22473 25.6039H8.22577M8.22473 25.6039H8.22577M8.22577 25.6039H8.22681M8.22577 25.6039H8.22681M8.22681 25.6039H8.22787M8.22681 25.6039H8.22787M8.22787 25.6039H8.22892M8.22787 25.6039H8.22892M8.22892 25.6039H8.22998M8.22892 25.6039H8.22998M8.22998 25.6039H8.23105M8.22998 25.6039H8.23105M8.23105 25.6039H8.23212M8.23105 25.6039H8.23212M8.23212 25.6039H8.2332M8.23212 25.6039H8.2332M8.2332 25.6039H8.23428M8.2332 25.6039H8.23428M8.23428 25.6039H8.23537M8.23428 25.6039H8.23537M8.23537 25.6039H8.23646M8.23537 25.6039H8.23646M8.23646 25.6039H8.23756M8.23646 25.6039H8.23756M8.23756 25.6039H8.23866M8.23756 25.6039H8.23866M8.23866 25.6039H8.23977M8.23866 25.6039H8.23977M8.23977 25.6039H8.24088M8.23977 25.6039H8.24088M8.24088 25.6039H8.242M8.24088 25.6039H8.242M8.242 25.6039H8.24312M8.242 25.6039H8.24312M8.24312 25.6039H8.24425M8.24312 25.6039H8.24425M8.24425 25.6039H8.24539M8.24425 25.6039H8.24539M8.24539 25.6039H8.24653M8.24539 25.6039H8.24653M8.24653 25.6039H8.24767M8.24653 25.6039H8.24767M8.24767 25.6039H8.24883M8.24767 25.6039H8.24883M8.24883 25.6039H8.24998M8.24883 25.6039H8.24998M8.24998 25.6039H8.25114M8.24998 25.6039H8.25114M8.25114 25.6039H8.25231M8.25114 25.6039H8.25231M8.25231 25.6039H8.25348M8.25231 25.6039H8.25348M8.25348 25.6039H8.25466M8.25348 25.6039H8.25466M8.25466 25.6039H8.25585M8.25466 25.6039H8.25585M8.25585 25.6039H8.25704M8.25585 25.6039H8.25704M8.25704 25.6039H8.25823M8.25704 25.6039H8.25823M8.25823 25.6039H8.25943M8.25823 25.6039H8.25943M8.25943 25.6039H8.26064M8.25943 25.6039H8.26064M8.26064 25.6039H8.26185M8.26064 25.6039H8.26185M8.26185 25.6039H8.26307M8.26185 25.6039H8.26307M8.26307 25.6039H8.26429M8.26307 25.6039H8.26429M8.26429 25.6039H8.26552M8.26429 25.6039H8.26552M8.26552 25.6039H8.26675M8.26552 25.6039H8.26675M8.26675 25.6039H8.26799M8.26675 25.6039H8.26799M8.26799 25.6039H8.26924M8.26799 25.6039H8.26924M8.26924 25.6039H8.27049M8.26924 25.6039H8.27049M8.27049 25.6039H8.27175M8.27049 25.6039H8.27175M8.27175 25.6039H8.27301M8.27175 25.6039H8.27301M8.27301 25.6039H8.27428M8.27301 25.6039H8.27428M8.27428 25.6039H8.27555M8.27428 25.6039H8.27555M8.27555 25.6039H8.27683M8.27555 25.6039H8.27683M8.27683 25.6039H8.27812M8.27683 25.6039H8.27812M8.27812 25.6039H8.27941M8.27812 25.6039H8.27941M8.27941 25.6039H8.28071M8.27941 25.6039H8.28071M8.28071 25.6039H8.28201M8.28071 25.6039H8.28201M8.28201 25.6039H8.28332M8.28201 25.6039H8.28332M8.28332 25.6039H8.28464M8.28332 25.6039H8.28464M8.28464 25.6039H8.28596M8.28464 25.6039H8.28596M8.28596 25.6039H8.28728M8.28596 25.6039H8.28728M8.28728 25.6039H8.28862M8.28728 25.6039H8.28862M8.28862 25.6039H8.28996M8.28862 25.6039H8.28996M8.28996 25.6039H8.2913M8.28996 25.6039H8.2913M8.2913 25.6039H8.29265M8.2913 25.6039H8.29265M8.29265 25.6039H8.29401M8.29265 25.6039H8.29401M8.29401 25.6039H8.29537M8.29401 25.6039H8.29537M8.29537 25.6039H8.29674M8.29537 25.6039H8.29674M8.29674 25.6039H8.29812M8.29674 25.6039H8.29812M8.29812 25.6039H8.2995M8.29812 25.6039H8.2995M8.2995 25.6039H8.30089M8.2995 25.6039H8.30089M8.30089 25.6039H8.30228M8.30089 25.6039H8.30228M8.30228 25.6039H8.30368M8.30228 25.6039H8.30368M8.30368 25.6039H8.30509M8.30368 25.6039H8.30509M8.30509 25.6039H8.3065M8.30509 25.6039H8.3065M8.3065 25.6039H8.30792M8.3065 25.6039H8.30792M8.30792 25.6039H8.30935M8.30792 25.6039H8.30935M8.30935 25.6039H8.31078M8.30935 25.6039H8.31078M8.31078 25.6039H8.31222M8.31078 25.6039H8.31222M8.31222 25.6039H8.31366M8.31222 25.6039H8.31366M8.31366 25.6039H8.31511M8.31366 25.6039H8.31511M8.31511 25.6039H8.31657M8.31511 25.6039H8.31657M8.31657 25.6039H8.31803M8.31657 25.6039H8.31803M8.31803 25.6039H8.3195M8.31803 25.6039H8.3195M8.3195 25.6039H8.32097M8.3195 25.6039H8.32097M8.32097 25.6039H8.32246M8.32097 25.6039H8.32246M8.32246 25.6039H8.32394M8.32246 25.6039H8.32394M8.32394 25.6039H8.32544M8.32394 25.6039H8.32544M8.32544 25.6039H8.32694M8.32544 25.6039H8.32694M8.32694 25.6039H8.32845M8.32694 25.6039H8.32845M8.32845 25.6039H8.32996M8.32845 25.6039H8.32996M8.32996 25.6039H8.33148M8.32996 25.6039H8.33148M8.33148 25.6039H8.33301M8.33148 25.6039H8.33301M8.33301 25.6039H8.33454M8.33301 25.6039H8.33454M8.33454 25.6039H8.33608M8.33454 25.6039H8.33608M8.33608 25.6039H8.33763M8.33608 25.6039H8.33763M8.33763 25.6039H8.33918M8.33763 25.6039H8.33918M8.33918 25.6039H8.34074M8.33918 25.6039H8.34074M8.34074 25.6039H8.34231M8.34074 25.6039H8.34231M8.34231 25.6039H8.34388M8.34231 25.6039H8.34388M8.34388 25.6039H8.34547M8.34388 25.6039H8.34547M8.34547 25.6039H8.34705M8.34547 25.6039H8.34705M8.34705 25.6039H8.34865M8.34705 25.6039H8.34865M8.34865 25.6039H8.35025M8.34865 25.6039H8.35025M8.35025 25.6039H8.35185M8.35025 25.6039H8.35185M8.35185 25.6039H8.35347M8.35185 25.6039H8.35347M8.35347 25.6039H8.35509M8.35347 25.6039H8.35509M8.35509 25.6039H8.35671M8.35509 25.6039H8.35671M8.35671 25.6039H8.35835M8.35671 25.6039H8.35835M8.35835 25.6039H8.35999M8.35835 25.6039H8.35999M8.35999 25.6039H8.36164M8.35999 25.6039H8.36164M8.36164 25.6039H8.36329M8.36164 25.6039H8.36329M8.36329 25.6039H8.36495M8.36329 25.6039H8.36495M8.36495 25.6039H8.36662M8.36495 25.6039H8.36662M8.36662 25.6039H8.3683M8.36662 25.6039H8.3683M8.3683 25.6039H8.36998M8.3683 25.6039H8.36998M8.36998 25.6039H8.37167M8.36998 25.6039H8.37167M8.37167 25.6039H8.37336M8.37167 25.6039H8.37336M8.37336 25.6039H8.37507M8.37336 25.6039H8.37507M8.37507 25.6039H8.37678M8.37507 25.6039H8.37678M8.37678 25.6039H8.37849M8.37678 25.6039H8.37849M8.37849 25.6039H8.38022M8.37849 25.6039H8.38022M8.38022 25.6039H8.38195M8.38022 25.6039H8.38195M8.38195 25.6039H8.38369M8.38195 25.6039H8.38369M8.38369 25.6039H8.38543M8.38369 25.6039H8.38543M8.38543 25.6039H8.38718M8.38543 25.6039H8.38718M8.38718 25.6039H8.38894M8.38718 25.6039H8.38894M8.38894 25.6039H8.39071M8.38894 25.6039H8.39071M8.39071 25.6039H8.39248M8.39071 25.6039H8.39248M8.39248 25.6039H8.39426M8.39248 25.6039H8.39426M8.39426 25.6039H8.39605M8.39426 25.6039H8.39605M8.39605 25.6039H8.39785M8.39605 25.6039H8.39785M8.39785 25.6039H8.39965M8.39785 25.6039H8.39965M8.39965 25.6039H8.40146M8.39965 25.6039H8.40146M8.40146 25.6039H8.40328M8.40146 25.6039H8.40328M8.40328 25.6039H8.4051M8.40328 25.6039H8.4051M8.4051 25.6039H8.40693M8.4051 25.6039H8.40693M8.40693 25.6039H8.40877M8.40693 25.6039H8.40877M8.40877 25.6039H8.41062M8.40877 25.6039H8.41062M8.41062 25.6039H8.41247M8.41062 25.6039H8.41247M8.41247 25.6039H8.41433M8.41247 25.6039H8.41433M8.41433 25.6039H8.4162M8.41433 25.6039H8.4162M8.4162 25.6039H8.41808M8.4162 25.6039H8.41808M8.41808 25.6039H8.41996M8.41808 25.6039H8.41996M8.41996 25.6039H8.42185M8.41996 25.6039H8.42185M8.42185 25.6039H8.42375M8.42185 25.6039H8.42375M8.42375 25.6039H8.42566M8.42375 25.6039H8.42566M8.42566 25.6039H8.42757M8.42566 25.6039H8.42757M8.42757 25.6039H8.42949M8.42757 25.6039H8.42949M8.42949 25.6039H8.43142M8.42949 25.6039H8.43142M8.43142 25.6039H8.43537M8.43142 25.6039H8.43537M8.43537 25.6039H8.43932M8.43537 25.6039H8.43932M8.43932 25.6039H8.44326M8.43932 25.6039H8.44326M8.44326 25.6039H8.44719M8.44326 25.6039H8.44719M8.44719 25.6039H8.45112M8.44719 25.6039H8.45112M8.45112 25.6039H8.45504M8.45112 25.6039H8.45504M8.45504 25.6039H8.45895M8.45504 25.6039H8.45895M8.45895 25.6039H8.46286M8.45895 25.6039H8.46286M8.46286 25.6039H8.46676M8.46286 25.6039H8.46676M8.46676 25.6039H8.47066M8.46676 25.6039H8.47066M8.47066 25.6039H8.47455M8.47066 25.6039H8.47455M8.47455 25.6039H8.47843M8.47455 25.6039H8.47843M8.47843 25.6039H8.48231M8.47843 25.6039H8.48231M8.48231 25.6039H8.48618M8.48231 25.6039H8.48618M8.48618 25.6039H8.49004M8.48618 25.6039H8.49004M8.49004 25.6039H8.4939M8.49004 25.6039H8.4939M8.4939 25.6039H8.49775M8.4939 25.6039H8.49775M8.49775 25.6039H8.50159M8.49775 25.6039H8.50159M8.50159 25.6039H8.50543M8.50159 25.6039H8.50543M8.50543 25.6039H8.50926M8.50543 25.6039H8.50926M8.50926 25.6039H8.51309M8.50926 25.6039H8.51309M8.51309 25.6039H8.51691M8.51309 25.6039H8.51691M8.51691 25.6039H8.52072M8.51691 25.6039H8.52072M8.52072 25.6039H8.52453M8.52072 25.6039H8.52453M8.52453 25.6039H8.52833M8.52453 25.6039H8.52833M8.52833 25.6039H8.53213M8.52833 25.6039H8.53213M8.53213 25.6039H8.53592M8.53213 25.6039H8.53592M8.53592 25.6039H8.5397M8.53592 25.6039H8.5397M8.5397 25.6039H8.54348M8.5397 25.6039H8.54348M8.54348 25.6039H8.54725M8.54348 25.6039H8.54725M8.54725 25.6039H8.55101M8.54725 25.6039H8.55101M8.55101 25.6039H8.55477M8.55101 25.6039H8.55477M8.55477 25.6039H8.55852M8.55477 25.6039H8.55852M8.55852 25.6039H8.56227M8.55852 25.6039H8.56227M8.56227 25.6039H8.56601M8.56227 25.6039H8.56601M8.56601 25.6039H8.56975M8.56601 25.6039H8.56975M8.56975 25.6039H8.57348M8.56975 25.6039H8.57348M8.57348 25.6039H8.5772M8.57348 25.6039H8.5772M8.5772 25.6039H8.58092M8.5772 25.6039H8.58092M8.58092 25.6039H8.58463M8.58092 25.6039H8.58463M8.58463 25.6039H8.58834M8.58463 25.6039H8.58834M8.58834 25.6039H8.59204M8.58834 25.6039H8.59204M8.59204 25.6039H8.59573M8.59204 25.6039H8.59573M8.59573 25.6039H8.59942M8.59573 25.6039H8.59942M8.59942 25.6039H8.6031M8.59942 25.6039H8.6031M8.6031 25.6039H8.60678M8.6031 25.6039H8.60678M8.60678 25.6039H8.61045M8.60678 25.6039H8.61045M8.61045 25.6039H8.61411M8.61045 25.6039H8.61411M8.61411 25.6039H8.61777M8.61411 25.6039H8.61777M8.61777 25.6039H8.62143M8.61777 25.6039H8.62143M8.62143 25.6039H8.62508M8.62143 25.6039H8.62508M8.62508 25.6039H8.62872M8.62508 25.6039H8.62872M8.62872 25.6039H8.63236M8.62872 25.6039H8.63236M8.63236 25.6039H8.63599M8.63236 25.6039H8.63599M8.63599 25.6039H8.63961M8.63599 25.6039H8.63961M8.63961 25.6039H8.64323M8.63961 25.6039H8.64323M8.64323 25.6039H8.64685M8.64323 25.6039H8.64685M8.64685 25.6039H8.65046M8.64685 25.6039H8.65046M8.65046 25.6039H8.65406M8.65046 25.6039H8.65406M8.65406 25.6039H8.65766M8.65406 25.6039H8.65766M8.65766 25.6039H8.66125M8.65766 25.6039H8.66125M8.66125 25.6039H8.66484M8.66125 25.6039H8.66484M8.66484 25.6039H8.66842M8.66484 25.6039H8.66842M8.66842 25.6039H8.672M8.66842 25.6039H8.672M8.672 25.6039H8.67557M8.672 25.6039H8.67557M8.67557 25.6039H8.67914M8.67557 25.6039H8.67914M8.67914 25.6039H8.6827M8.67914 25.6039H8.6827M8.6827 25.6039H8.68625M8.6827 25.6039H8.68625M8.68625 25.6039H8.6898M8.68625 25.6039H8.6898M8.6898 25.6039H8.69334M8.6898 25.6039H8.69334M8.69334 25.6039H8.69688M8.69334 25.6039H8.69688M8.69688 25.6039H8.70042M8.69688 25.6039H8.70042M8.70042 25.6039H8.70395M8.70042 25.6039H8.70395M8.70395 25.6039H8.70747M8.70395 25.6039H8.70747M8.70747 25.6039H8.71099M8.70747 25.6039H8.71099M8.71099 25.6039H8.7145M8.71099 25.6039H8.7145M8.7145 25.6039H8.71801M8.7145 25.6039H8.71801M8.71801 25.6039H8.72151M8.71801 25.6039H8.72151M8.72151 25.6039H8.72501M8.72151 25.6039H8.72501M8.72501 25.6039H8.7285M8.72501 25.6039H8.7285M8.7285 25.6039H8.73198M8.7285 25.6039H8.73198M8.73198 25.6039H8.73547M8.73198 25.6039H8.73547M8.73547 25.6039H8.73894M8.73547 25.6039H8.73894M8.73894 25.6039H8.74241M8.73894 25.6039H8.74241M8.74241 25.6039H8.74588M8.74241 25.6039H8.74588M8.74588 25.6039H8.74934M8.74588 25.6039H8.74934M8.74934 25.6039H8.7528M8.74934 25.6039H8.7528M8.7528 25.6039H8.75625M8.7528 25.6039H8.75625M8.75625 25.6039H8.7597M8.75625 25.6039H8.7597M8.7597 25.6039H8.76314M8.7597 25.6039H8.76314M8.76314 25.6039H8.76657M8.76314 25.6039H8.76657M8.76657 25.6039H8.77001M8.76657 25.6039H8.77001M8.77001 25.6039H8.77343M8.77001 25.6039H8.77343M8.77343 25.6039H8.77685M8.77343 25.6039H8.77685M8.77685 25.6039H8.78027M8.77685 25.6039H8.78027M8.78027 25.6039H8.78368M8.78027 25.6039H8.78368M8.78368 25.6039H8.78709M8.78368 25.6039H8.78709M8.78709 25.6039H8.79049M8.78709 25.6039H8.79049M8.79049 25.6039H8.79389M8.79049 25.6039H8.79389M8.79389 25.6039H8.79728M8.79389 25.6039H8.79728M8.79728 25.6039H8.80067M8.79728 25.6039H8.80067M8.80067 25.6039H8.80405M8.80067 25.6039H8.80405M8.80405 25.6039H8.80743M8.80405 25.6039H8.80743M8.80743 25.6039H8.8108M8.80743 25.6039H8.8108M8.8108 25.6039H8.81417M8.8108 25.6039H8.81417M8.81417 25.6039H8.81754M8.81417 25.6039H8.81754M8.81754 25.6039H8.8209M8.81754 25.6039H8.8209M8.8209 25.6039H8.82425M8.8209 25.6039H8.82425M8.82425 25.6039H8.8276M8.82425 25.6039H8.8276M8.8276 25.6039H8.83095M8.8276 25.6039H8.83095M8.83095 25.6039H8.83429M8.83095 25.6039H8.83429M8.83429 25.6039H8.83763M8.83429 25.6039H8.83763M8.83763 25.6039H8.84096M8.83763 25.6039H8.84096M8.84096 25.6039H8.84429M8.84096 25.6039H8.84429M8.84429 25.6039H8.84761M8.84429 25.6039H8.84761M8.84761 25.6039H8.85093M8.84761 25.6039H8.85093M8.85093 25.6039H8.85424M8.85093 25.6039H8.85424M8.85424 25.6039H8.85755M8.85424 25.6039H8.85755M8.85755 25.6039H8.86085M8.85755 25.6039H8.86085M8.86085 25.6039H8.86415M8.86085 25.6039H8.86415M8.86415 25.6039H8.86745M8.86415 25.6039H8.86745M8.86745 25.6039H8.87074M8.86745 25.6039H8.87074M8.87074 25.6039H8.87403M8.87074 25.6039H8.87403M8.87403 25.6039H8.87731M8.87403 25.6039H8.87731M8.87731 25.6039H8.88059M8.87731 25.6039H8.88059M8.88059 25.6039H8.88387M8.88059 25.6039H8.88387M8.88387 25.6039H8.88714M8.88387 25.6039H8.88714M8.88714 25.6039H8.8904M8.88714 25.6039H8.8904M8.8904 25.6039H8.89366M8.8904 25.6039H8.89366M8.89366 25.6039H8.89692M8.89366 25.6039H8.89692M8.89692 25.6039H8.90017M8.89692 25.6039H8.90017M8.90017 25.6039H8.90342M8.90017 25.6039H8.90342M8.90342 25.6039H8.90666M8.90342 25.6039H8.90666M8.90666 25.6039H8.9099M8.90666 25.6039H8.9099M8.9099 25.6039H8.91314M8.9099 25.6039H8.91314M8.91314 25.6039H8.91637M8.91314 25.6039H8.91637M8.91637 25.6039H8.9196M8.91637 25.6039H8.9196M8.9196 25.6039H8.92282M8.9196 25.6039H8.92282M8.92282 25.6039H8.92604M8.92282 25.6039H8.92604M8.92604 25.6039H8.92926M8.92604 25.6039H8.92926M8.92926 25.6039H8.93247M8.92926 25.6039H8.93247M8.93247 25.6039H8.93568M8.93247 25.6039H8.93568M8.93568 25.6039H8.93888M8.93568 25.6039H8.93888M8.93888 25.6039H8.94208M8.93888 25.6039H8.94208M8.94208 25.6039H8.94527M8.94208 25.6039H8.94527M8.94527 25.6039H8.94847M8.94527 25.6039H8.94847M8.94847 25.6039H8.95165M8.94847 25.6039H8.95165M8.95165 25.6039H8.95484M8.95165 25.6039H8.95484M8.95484 25.6039H8.95802M8.95484 25.6039H8.95802M8.95802 25.6039H8.96119M8.95802 25.6039H8.96119M8.96119 25.6039H8.96436M8.96119 25.6039H8.96436M8.96436 25.6039H8.96753M8.96436 25.6039H8.96753M8.96753 25.6039H8.97069M8.96753 25.6039H8.97069M8.97069 25.6039H8.97385M8.97069 25.6039H8.97385M8.97385 25.6039H8.97701M8.97385 25.6039H8.97701M8.97701 25.6039H8.98016M8.97701 25.6039H8.98016M8.98016 25.6039H8.98331M8.98016 25.6039H8.98331M8.98331 25.6039H8.98646M8.98331 25.6039H8.98646M8.98646 25.6039H8.9896M8.98646 25.6039H8.9896M8.9896 25.6039H8.99273M8.9896 25.6039H8.99273M8.99273 25.6039H8.99587M8.99273 25.6039H8.99587M8.99587 25.6039H8.999M8.99587 25.6039H8.999M8.999 25.6039H9.00212M8.999 25.6039H9.00212M9.00212 25.6039H9.00525M9.00212 25.6039H9.00525M9.00525 25.6039H9.00836M9.00525 25.6039H9.00836M9.00836 25.6039H9.01148M9.00836 25.6039H9.01148M9.01148 25.6039H9.01459M9.01148 25.6039H9.01459M9.01459 25.6039H9.0177M9.01459 25.6039H9.0177M9.0177 25.6039H9.0208M9.0177 25.6039H9.0208M9.0208 25.6039H9.02391M9.0208 25.6039H9.02391M9.02391 25.6039H9.027M9.02391 25.6039H9.027M9.027 25.6039H9.0301M9.027 25.6039H9.0301M9.0301 25.6039H9.03319M9.0301 25.6039H9.03319M9.03319 25.6039H9.03627M9.03319 25.6039H9.03627M9.03627 25.6039H9.03936M9.03627 25.6039H9.03936M9.03936 25.6039H9.04244M9.03936 25.6039H9.04244M9.04244 25.6039H9.04551M9.04244 25.6039H9.04551M9.04551 25.6039H9.04859M9.04551 25.6039H9.04859M9.04859 25.6039H9.05166M9.04859 25.6039H9.05166M9.05166 25.6039H9.05472M9.05166 25.6039H9.05472M9.05472 25.6039H9.05779M9.05472 25.6039H9.05779M9.05779 25.6039H9.06084M9.05779 25.6039H9.06084M9.06084 25.6039H9.0639M9.06084 25.6039H9.0639M9.0639 25.6039H9.06695M9.0639 25.6039H9.06695M9.06695 25.6039H9.07M9.06695 25.6039H9.07M9.07 25.6039H9.07305M9.07 25.6039H9.07305M9.07305 25.6039H9.07609M9.07305 25.6039H9.07609M9.07609 25.6039H9.07913M9.07609 25.6039H9.07913M9.07913 25.6039H9.08217M9.07913 25.6039H9.08217M9.08217 25.6039H9.0852M9.08217 25.6039H9.0852M9.0852 25.6039H9.08823M9.0852 25.6039H9.08823M9.08823 25.6039H9.09126M9.08823 25.6039H9.09126M9.09126 25.6039H9.09429M9.09126 25.6039H9.09429M9.09429 25.6039H9.09731M9.09429 25.6039H9.09731M9.09731 25.6039H9.10032M9.09731 25.6039H9.10032M9.10032 25.6039H9.10334M9.10032 25.6039H9.10334M9.10334 25.6039H9.10635M9.10334 25.6039H9.10635M9.10635 25.6039H9.10936M9.10635 25.6039H9.10936M9.10936 25.6039H9.11236M9.10936 25.6039H9.11236M9.11236 25.6039H9.11537M9.11236 25.6039H9.11537M9.11537 25.6039H9.11837M9.11537 25.6039H9.11837M9.11837 25.6039H9.12136M9.11837 25.6039H9.12136M9.12136 25.6039H9.12436M9.12136 25.6039H9.12436M9.12436 25.6039H9.12735M9.12436 25.6039H9.12735M9.12735 25.6039H9.13033M9.12735 25.6039H9.13033M9.13033 25.6039H9.13332M9.13033 25.6039H9.13332M9.13332 25.6039H9.1363M9.13332 25.6039H9.1363M9.1363 25.6039H9.13928M9.1363 25.6039H9.13928M9.13928 25.6039H9.14225M9.13928 25.6039H9.14225M9.14225 25.6039H9.14523M9.14225 25.6039H9.14523M9.14523 25.6039H9.1482M9.14523 25.6039H9.1482M9.1482 25.6039H9.15117M9.1482 25.6039H9.15117M9.15117 25.6039H9.15413M9.15117 25.6039H9.15413M9.15413 25.6039H9.15709M9.15413 25.6039H9.15709M9.15709 25.6039H9.16005M9.15709 25.6039H9.16005M9.16005 25.6039H9.16301M9.16005 25.6039H9.16301M9.16301 25.6039H9.16596M9.16301 25.6039H9.16596M9.16596 25.6039H9.16891M9.16596 25.6039H9.16891M9.16891 25.6039H9.17186M9.16891 25.6039H9.17186M9.17186 25.6039H9.17481M9.17186 25.6039H9.17481M9.17481 25.6039H9.17775M9.17481 25.6039H9.17775M9.17775 25.6039H9.18069M9.17775 25.6039H9.18069M9.18069 25.6039H9.18363M9.18069 25.6039H9.18363M9.18363 25.6039H9.18656M9.18363 25.6039H9.18656M9.18656 25.6039H9.1895M9.18656 25.6039H9.1895M9.1895 25.6039H9.19242M9.1895 25.6039H9.19242M9.19242 25.6039H9.19535M9.19242 25.6039H9.19535M9.19535 25.6039H9.19828M9.19535 25.6039H9.19828M9.19828 25.6039H9.2012M9.19828 25.6039H9.2012M9.2012 25.6039H9.20412M9.2012 25.6039H9.20412M9.20412 25.6039H9.20704M9.20412 25.6039H9.20704M9.20704 25.6039H9.20995M9.20704 25.6039H9.20995M9.20995 25.6039H9.21286M9.20995 25.6039H9.21286M9.21286 25.6039H9.21577M9.21286 25.6039H9.21577M9.21577 25.6039H9.21868M9.21577 25.6039H9.21868M9.21868 25.6039H9.22159M9.21868 25.6039H9.22159M9.22159 25.6039H9.22449M9.22159 25.6039H9.22449M9.22449 25.6039H9.22739M9.22449 25.6039H9.22739M9.22739 25.6039H9.23029M9.22739 25.6039H9.23029M9.23029 25.6039H9.23318M9.23029 25.6039H9.23318M9.23318 25.6039H9.23608M9.23318 25.6039H9.23608M9.23608 25.6039H9.23897M9.23608 25.6039H9.23897M9.23897 25.6039H9.24186M9.23897 25.6039H9.24186M9.24186 25.6039H9.24475M9.24186 25.6039H9.24475M9.24475 25.6039H9.24763M9.24475 25.6039H9.24763M9.24763 25.6039H9.25051M9.24763 25.6039H9.25051M9.25051 25.6039H9.25339M9.25051 25.6039H9.25339M9.25339 25.6039H9.25627M9.25339 25.6039H9.25627M9.25627 25.6039H9.25915M9.25627 25.6039H9.25915M9.25915 25.6039H9.26202M9.25915 25.6039H9.26202M9.26202 25.6039H9.26489M9.26202 25.6039H9.26489M9.26489 25.6039H9.26776M9.26489 25.6039H9.26776M9.26776 25.6039H9.27063M9.26776 25.6039H9.27063M9.27063 25.6039H9.27349M9.27063 25.6039H9.27349M9.27349 25.6039H9.27636M9.27349 25.6039H9.27636M9.27636 25.6039H9.27922M9.27636 25.6039H9.27922M9.27922 25.6039H9.28208M9.27922 25.6039H9.28208M9.28208 25.6039H9.28493M9.28208 25.6039H9.28493M9.28493 25.6039H9.28779M9.28493 25.6039H9.28779M9.28779 25.6039H9.29064M9.28779 25.6039H9.29064M9.29064 25.6039H9.29349M9.29064 25.6039H9.29349M9.29349 25.6039H9.29634M9.29349 25.6039H9.29634M9.29634 25.6039H9.29919M9.29634 25.6039H9.29919M9.29919 25.6039H9.30204M9.29919 25.6039H9.30204M9.30204 25.6039H9.30488M9.30204 25.6039H9.30488M9.30488 25.6039H9.30772M9.30488 25.6039H9.30772M9.30772 25.6039H9.31056M9.30772 25.6039H9.31056M9.31056 25.6039H9.3134M9.31056 25.6039H9.3134M9.3134 25.6039H9.31624M9.3134 25.6039H9.31624M9.31624 25.6039H9.31907M9.31624 25.6039H9.31907M9.31907 25.6039H9.3219M9.31907 25.6039H9.3219M9.3219 25.6039H9.32473M9.3219 25.6039H9.32473M9.32473 25.6039H9.32756M9.32473 25.6039H9.32756M9.32756 25.6039H9.33039M9.32756 25.6039H9.33039M9.33039 25.6039H9.33322M9.33039 25.6039H9.33322M9.33322 25.6039H9.33604M9.33322 25.6039H9.33604M9.33604 25.6039H9.33886M9.33604 25.6039H9.33886M9.33886 25.6039H9.34168M9.33886 25.6039H9.34168M9.34168 25.6039H9.3445M9.34168 25.6039H9.3445M9.3445 25.6039H9.34732M9.3445 25.6039H9.34732M9.34732 25.6039H9.35014M9.34732 25.6039H9.35014M9.35014 25.6039H9.35295M9.35014 25.6039H9.35295M9.35295 25.6039H9.35576M9.35295 25.6039H9.35576M9.35576 25.6039H9.35858M9.35576 25.6039H9.35858M9.35858 25.6039H9.36139M9.35858 25.6039H9.36139M9.36139 25.6039H9.36419M9.36139 25.6039H9.36419M9.36419 25.6039H9.367M9.36419 25.6039H9.367M9.367 25.6039H9.36981M9.367 25.6039H9.36981M9.36981 25.6039H9.37261M9.36981 25.6039H9.37261M9.37261 25.6039H9.37541M9.37261 25.6039H9.37541M9.37541 25.6039H9.37821M9.37541 25.6039H9.37821M9.37821 25.6039H9.38101M9.37821 25.6039H9.38101M9.38101 25.6039H9.38381M9.38101 25.6039H9.38381M9.38381 25.6039H9.38661M9.38381 25.6039H9.38661M9.38661 25.6039H9.3894M9.38661 25.6039H9.3894M9.3894 25.6039H9.3922M9.3894 25.6039H9.3922M9.3922 25.6039H9.39499M9.3922 25.6039H9.39499M9.39499 25.6039H9.39778M9.39499 25.6039H9.39778M9.39778 25.6039H9.40057M9.39778 25.6039H9.40057M9.40057 25.6039H9.40336M9.40057 25.6039H9.40336M9.40336 25.6039H9.40615M9.40336 25.6039H9.40615M9.40615 25.6039H9.40894M9.40615 25.6039H9.40894M9.40894 25.6039H9.41172M9.40894 25.6039H9.41172M9.41172 25.6039H9.41451M9.41172 25.6039H9.41451M9.41451 25.6039H9.41729M9.41451 25.6039H9.41729M9.41729 25.6039H9.42007M9.41729 25.6039H9.42007M9.42007 25.6039H9.42285M9.42007 25.6039H9.42285M9.42285 25.6039H9.42563M9.42285 25.6039H9.42563M9.42563 25.6039H9.42841M9.42563 25.6039H9.42841M9.42841 25.6039H9.43119M9.42841 25.6039H9.43119M9.43119 25.6039H9.43396M9.43119 25.6039H9.43396M9.43396 25.6039H9.43674M9.43396 25.6039H9.43674M9.43674 25.6039H9.43951M9.43674 25.6039H9.43951M9.43951 25.6039H9.44229M9.43951 25.6039H9.44229M9.44229 25.6039H9.44506M9.44229 25.6039H9.44506M9.44506 25.6039H9.44783M9.44506 25.6039H9.44783M9.44783 25.6039H9.4506M9.44783 25.6039H9.4506M9.4506 25.6039H9.45337M9.4506 25.6039H9.45337M9.45337 25.6039H9.45614M9.45337 25.6039H9.45614M9.45614 25.6039H9.45891M9.45614 25.6039H9.45891M9.45891 25.6039H9.46167M9.45891 25.6039H9.46167M9.46167 25.6039H9.46444M9.46167 25.6039H9.46444M9.46444 25.6039H9.46721M9.46444 25.6039H9.46721M9.46721 25.6039H9.46997M9.46721 25.6039H9.46997M9.46997 25.6039H9.47273M9.46997 25.6039H9.47273M9.47273 25.6039H9.4755M9.47273 25.6039H9.4755M9.4755 25.6039H9.47826M9.4755 25.6039H9.47826M9.47826 25.6039H9.48102M9.47826 25.6039H9.48102M9.48102 25.6039H9.48378M9.48102 25.6039H9.48378M9.48378 25.6039H9.48654M9.48378 25.6039H9.48654M9.48654 25.6039H9.4893M9.48654 25.6039H9.4893M9.4893 25.6039H9.49206M9.4893 25.6039H9.49206M9.49206 25.6039H9.49481M9.49206 25.6039H9.49481M9.49481 25.6039H9.49757M9.49481 25.6039H9.49757M9.49757 25.6039H9.50033M9.49757 25.6039H9.50033M9.50033 25.6039H9.50308M9.50033 25.6039H9.50308M9.50308 25.6039H9.50584M9.50308 25.6039H9.50584M9.50584 25.6039H9.50859M9.50584 25.6039H9.50859M9.50859 25.6039H9.51135M9.50859 25.6039H9.51135M9.51135 25.6039H9.5141M9.51135 25.6039H9.5141M9.5141 25.6039H9.51685M9.5141 25.6039H9.51685M9.51685 25.6039H9.5196M9.51685 25.6039H9.5196M9.5196 25.6039H9.52236M9.5196 25.6039H9.52236M9.52236 25.6039H9.52511M9.52236 25.6039H9.52511M9.52511 25.6039H9.52786M9.52511 25.6039H9.52786M9.52786 25.6039H9.53061M9.52786 25.6039H9.53061M9.53061 25.6039H9.53336M9.53061 25.6039H9.53336M9.53336 25.6039H9.53611M9.53336 25.6039H9.53611M9.53611 25.6039H9.53886M9.53611 25.6039H9.53886M9.53886 25.6039H9.54161M9.53886 25.6039H9.54161M9.54161 25.6039H9.54435M9.54161 25.6039H9.54435M9.54435 25.6039H9.5471M9.54435 25.6039H9.5471M9.5471 25.6039H9.54985M9.5471 25.6039H9.54985M9.54985 25.6039H9.5526M9.54985 25.6039H9.5526M9.5526 25.6039H9.55535M9.5526 25.6039H9.55535M9.55535 25.6039H9.55809M9.55535 25.6039H9.55809M9.55809 25.6039H9.56084M9.55809 25.6039H9.56084M9.56084 25.6039H9.56359M9.56084 25.6039H9.56359M9.56359 25.6039H9.56633M9.56359 25.6039H9.56633M9.56633 25.6039H9.56908M9.56633 25.6039H9.56908M9.56908 25.6039H9.57182M9.56908 25.6039H9.57182M9.57182 25.6039H9.57457M9.57182 25.6039H9.57457M9.57457 25.6039H9.57731M9.57457 25.6039H9.57731M9.57731 25.6039H9.58006M9.57731 25.6039H9.58006M9.58006 25.6039H9.58281M9.58006 25.6039H9.58281M9.58281 25.6039H9.58555M9.58281 25.6039H9.58555M9.58555 25.6039H9.5883M9.58555 25.6039H9.5883M9.5883 25.6039H9.59104M9.5883 25.6039H9.59104M9.59104 25.6039H9.59379M9.59104 25.6039H9.59379M9.59379 25.6039H9.59653M9.59379 25.6039H9.59653M9.59653 25.6039H9.59928M9.59653 25.6039H9.59928M9.59928 25.6039H9.60202M9.59928 25.6039H9.60202M9.60202 25.6039H9.60477M9.60202 25.6039H9.60477M9.60477 25.6039H9.60751M9.60477 25.6039H9.60751M9.60751 25.6039H9.61026M9.60751 25.6039H9.61026M9.61026 25.6039H9.613M9.61026 25.6039H9.613M9.613 25.6039H9.61575M9.613 25.6039H9.61575M9.61575 25.6039H9.61849M9.61575 25.6039H9.61849M9.61849 25.6039H9.62124M9.61849 25.6039H9.62124M9.62124 25.6039H9.62398M9.62124 25.6039H9.62398M9.62398 25.6039H9.62673M9.62398 25.6039H9.62673M9.62673 25.6039H9.62948M9.62673 25.6039H9.62948M9.62948 25.6039H9.63222M9.62948 25.6039H9.63222M9.63222 25.6039H9.63497M9.63222 25.6039H9.63497M9.63497 25.6039H9.63772M9.63497 25.6039H9.63772M9.63772 25.6039H9.64046M9.63772 25.6039H9.64046M9.64046 25.6039H9.64321M9.64046 25.6039H9.64321M9.64321 25.6039H9.64596M9.64321 25.6039H9.64596M9.64596 25.6039H9.64871M9.64596 25.6039H9.64871M9.64871 25.6039H9.65146M9.64871 25.6039H9.65146M9.65146 25.6039H9.6542M9.65146 25.6039H9.6542M9.6542 25.6039H9.65695M9.6542 25.6039H9.65695M9.65695 25.6039H9.6597M9.65695 25.6039H9.6597M9.6597 25.6039H9.66245M9.6597 25.6039H9.66245M9.66245 25.6039H9.6652M9.66245 25.6039H9.6652M9.6652 25.6039H9.66795M9.6652 25.6039H9.66795M9.66795 25.6039H9.67071M9.66795 25.6039H9.67071M9.67071 25.6039H9.67346M9.67071 25.6039H9.67346M9.67346 25.6039H9.67621M9.67346 25.6039H9.67621M9.67621 25.6039H9.67896M9.67621 25.6039H9.67896M9.67896 25.6039H9.68172M9.67896 25.6039H9.68172M9.68172 25.6039H9.68447M9.68172 25.6039H9.68447M9.68447 25.6039H9.68722M9.68447 25.6039H9.68722M9.68722 25.6039H9.68998M9.68722 25.6039H9.68998M9.68998 25.6039H9.69273M9.68998 25.6039H9.69273M9.69273 25.6039H9.69549M9.69273 25.6039H9.69549M9.69549 25.6039H9.69825M9.69549 25.6039H9.69825M9.69825 25.6039H9.701M9.69825 25.6039H9.701M9.701 25.6039H9.70376M9.701 25.6039H9.70376M9.70376 25.6039H9.70652M9.70376 25.6039H9.70652M9.70652 25.6039H9.70928M9.70652 25.6039H9.70928M9.70928 25.6039H9.71204M9.70928 25.6039H9.71204M9.71204 25.6039H9.7148M9.71204 25.6039H9.7148M9.7148 25.6039H9.71756M9.7148 25.6039H9.71756M9.71756 25.6039H9.72033M9.71756 25.6039H9.72033M9.72033 25.6039H9.72309M9.72033 25.6039H9.72309M9.72309 25.6039H9.72585M9.72309 25.6039H9.72585M9.72585 25.6039H9.72862M9.72585 25.6039H9.72862M9.72862 25.6039H9.73138M9.72862 25.6039H9.73138M9.73138 25.6039H9.73415M9.73138 25.6039H9.73415M9.73415 25.6039H9.73692M9.73415 25.6039H9.73692M9.73692 25.6039H9.73969M9.73692 25.6039H9.73969M9.73969 25.6039H9.74246M9.73969 25.6039H9.74246M9.74246 25.6039H9.74523M9.74246 25.6039H9.74523M9.74523 25.6039H9.748M9.74523 25.6039H9.748M9.748 25.6039H9.75077M9.748 25.6039H9.75077M9.75077 25.6039H9.75354M9.75077 25.6039H9.75354M9.75354 25.6039H9.75632M9.75354 25.6039H9.75632M9.75632 25.6039H9.75909M9.75632 25.6039H9.75909M9.75909 25.6039H9.76187M9.75909 25.6039H9.76187M9.76187 25.6039H9.76465M9.76187 25.6039H9.76465M9.76465 25.6039H9.76743M9.76465 25.6039H9.76743M9.76743 25.6039H9.7702M9.76743 25.6039H9.7702M9.7702 25.6039H9.77299M9.7702 25.6039H9.77299M9.77299 25.6039H9.77577M9.77299 25.6039H9.77577M9.77577 25.6039H9.77855M9.77577 25.6039H9.77855M9.77855 25.6039H9.78133M9.77855 25.6039H9.78133M9.78133 25.6039H9.78412M9.78133 25.6039H9.78412M9.78412 25.6039H9.78691M9.78412 25.6039H9.78691M9.78691 25.6039H9.78969M9.78691 25.6039H9.78969M9.78969 25.6039H9.79248M9.78969 25.6039H9.79248M9.79248 25.6039H9.79527M9.79248 25.6039H9.79527M9.79527 25.6039H9.79806M9.79527 25.6039H9.79806M9.79806 25.6039H9.80086M9.79806 25.6039H9.80086M9.80086 25.6039H9.80365M9.80086 25.6039H9.80365M9.80365 25.6039H9.80645M9.80365 25.6039H9.80645M9.80645 25.6039H9.80924M9.80645 25.6039H9.80924M9.80924 25.6039H9.81204M9.80924 25.6039H9.81204M9.81204 25.6039H9.81484M9.81204 25.6039H9.81484M9.81484 25.6039H9.81764M9.81484 25.6039H9.81764M9.81764 25.6039H9.82044M9.81764 25.6039H9.82044M9.82044 25.6039H9.82325M9.82044 25.6039H9.82325M9.82325 25.6039H9.82605M9.82325 25.6039H9.82605M9.82605 25.6039H9.82886M9.82605 25.6039H9.82886M9.82886 25.6039H9.83167M9.82886 25.6039H9.83167M9.83167 25.6039H9.83448M9.83167 25.6039H9.83448M9.83448 25.6039H9.83729M9.83448 25.6039H9.83729M9.83729 25.6039H9.8401H9.83729ZM18.9403 20.4097L18.9399 20.41C18.6761 20.615 18.4172 20.8163 18.1623 21.0117L16.6532 22.1108C16.3783 22.2953 16.1095 22.4641 15.8464 22.6136L14.0991 23.2947C13.9423 23.3202 13.7885 23.3334 13.6372 23.3334H13.6153H13.5935H13.5717H13.5499H13.5282H13.5065H13.4848H13.4632H13.4417H13.4202H13.3987H13.3773H13.3559H13.3346H13.3133H13.292H13.2708H13.2496H13.2285H13.2074H13.1864H13.1654H13.1444H13.1235H13.1027H13.0818H13.0611H13.0403H13.0196H12.999H12.9784H12.9578H12.9373H12.9168H12.8964H12.876H12.8556H12.8353H12.8151H12.7948H12.7747H12.7545H12.7344H12.7144H12.6944H12.6744H12.6545H12.6346H12.6148H12.595H12.5753H12.5556H12.5359H12.5163H12.4967H12.4772H12.4577H12.4382H12.4188H12.3995H12.3801H12.3609H12.3416H12.3225H12.3033H12.2842H12.2651H12.2461H12.2272H12.2082H12.1893H12.1705H12.1517H12.1329H12.1142H12.0955H12.0769H12.0583H12.0398H12.0213H12.0028H11.9844H11.966H11.9477H11.9294H11.9112H11.893H11.8748H11.8567H11.8386H11.8206H11.8026H11.7847H11.7668H11.7489H11.7311H11.7133H11.6956H11.6779H11.6603H11.6427H11.6251H11.6076H11.5901H11.5727H11.5553H11.538H11.5207H11.5034H11.4862H11.4691H11.4519H11.4348H11.4178H11.4008H11.3839H11.3669H11.3501H11.3333H11.3165H11.2997H11.283H11.2664H11.2498H11.2332H11.2167H11.2002H11.1838H11.1674H11.151H11.1347H11.1184H11.1022H11.086H11.0699H11.0538H11.0377H11.0217H11.0058H10.9898H10.9739H10.9581H10.9423H10.9266H10.9109H10.8952H10.8796H10.864H10.8484H10.8329H10.8175H10.8021H10.7867H10.7714H10.7561H10.7409H10.7257H10.7105H10.6954H10.6804H10.6653H10.6504H10.6354H10.6205H10.6057H10.5909H10.5761H10.5614H10.5467H10.5321H10.5175H10.5029H10.4884H10.4739H10.4595H10.4451H10.4308H10.4165H10.4023H10.388H10.3739H10.3598H10.3457H10.3316H10.3176H10.3037H10.2898H10.2759H10.2621H10.2483H10.2346H10.2209H10.2072H10.1936H10.1801H10.1665H10.1531H10.1396H10.1262H10.1129H10.0996H10.0863H10.0731H10.0599H10.0468H10.0337H10.0206H10.0076H9.99466H9.98174H9.96886H9.95602H9.94323H9.93048H9.91777H9.90511H9.89248H9.8799H9.86737H9.85487H9.84242H9.83001H9.81765H9.80533H9.79305H9.78081H9.76862H9.75647H9.74436H9.73229H9.72027H9.70829H9.69636H9.68446H9.67261H9.6608H9.64904H9.63731H9.62564H9.614H9.6024H9.59085H9.57934H9.56788H9.55646H9.54508H9.53374H9.52245H9.51119H9.49999H9.48882H9.4777H9.46662H9.45558H9.44458H9.43363H9.42272H9.41186H9.40103H9.39025H9.37952H9.36882H9.35817H9.34756H9.33699H9.32647H9.31599H9.30555H9.29516H9.2848H9.27449H9.26423H9.254H9.24382H9.23368H9.22359H9.21354H9.20353H9.19356H9.18363H9.17375H9.16391H9.15412H9.14436H9.13465H9.12499H9.11536H9.10578H9.09624H9.08674H9.07729H9.06788H9.05851H9.04918H9.0399H9.03066H9.02146H9.01231H9.0032H8.99413H8.9851H8.97612H8.96718H8.95828H8.94943H8.94062H8.93185H8.92312H8.91444H8.90579H8.8972H8.88864H8.88013H8.87166H8.86323H8.85485H8.8465H8.83821H8.82995H8.82174H8.81356H8.80544H8.79735H8.78931H8.78131H8.77335H8.76544H8.75757H8.74974H8.74195H8.73421H8.72651H8.71885H8.71124H8.70366H8.69613H8.68865H8.6812H8.6738H8.66644H8.65913H8.65185H8.64462H8.63744H8.63029H8.62319H8.61613H8.60911H8.60214H8.59521H8.58832H8.58147H8.57467H8.56791H8.56119H8.55452H8.54788H8.5413H8.53475H8.52824H8.52178H8.51536H8.50899H8.50266H8.49637H8.49012H8.48391H8.47775H8.47163H8.46555H8.45952H8.45353H8.44758H8.44167H8.43581H8.42999H8.42421H8.41848H8.41278H8.40713H8.40153H8.39596H8.39044H8.38496H8.37953H8.37413H8.36878H8.36347H8.35821H8.35298H8.3478H8.34267H8.33757H8.33252H8.32751H8.32254H8.31762H8.31274H8.3079H8.3031H8.29835H8.29364H8.28897H8.28435H8.27976H8.27522H8.27073H8.26627H8.26186H8.25749H8.25316H8.24888H8.24464H8.24044H8.23628H8.23217H8.2281H8.22407H8.22009H8.21615H8.21224H8.20839H8.20457H8.2008H8.19707H8.19339H8.18974H8.18614H8.18258H8.17907H8.17559H8.17216H8.16877H8.16543H8.16213H8.15887H8.15565H8.15247H8.14934H8.14625H8.14321H8.1402H8.13724H8.13432H8.13144H8.12861H8.12582H8.12307H8.12037H8.1177H8.11508H8.11251H8.10997H8.10748H8.10503H8.10262H8.10026H8.09793H8.09565H8.09342H8.09122H8.08907H8.08696H8.0849H8.08287H8.08089H8.07895H8.07706H8.07521H8.0734H8.07163H8.0699H8.06822H8.06658H8.06498H8.06343H8.06192H8.06045H8.05902H8.05763H8.05629H8.05499H8.05374H8.05252H8.05135H8.05022H8.04914H8.04809H8.04709H8.04613H8.04522H8.04435H8.04352H8.04273H8.04198H8.04128H8.04062H8.04H8.03943H8.03889H8.0384H8.03796H8.03755H8.03719H8.03687H8.03659H8.03636H8.03617H8.03602H8.03591H8.03585L8.03583 23.5334V23.3334C4.82021 23.3334 2.21406 25.9479 2.21406 29.1623C2.21406 33.3293 5.55924 36.7185 9.70144 36.8245V38.4976V38.6976H9.90144H10.7642H11.627H11.827V38.4976V36.8271H14.1272V38.4976V38.6976H14.3272H16.1977H16.3977V38.4976V36.8271H19.0539V38.4976V38.6976H19.2539H21.1193H21.3193V38.4976V36.8271H24.8604H26.7309H30.472H32.3427H36.0838H37.9543H41.6951H43.5659H45.4295C47.6065 36.8271 49.3954 35.0575 49.3865 32.9035L49.3868 32.8944L49.3878 32.8579C49.3886 32.8257 49.3898 32.7781 49.3912 32.7161C49.3939 32.5921 49.3974 32.4105 49.4002 32.1794C49.4059 31.7173 49.4093 31.0575 49.4 30.2658C49.3815 28.683 49.3122 26.5708 49.1092 24.457C48.9064 22.3463 48.5691 20.2209 48.0096 18.6181C47.7301 17.8174 47.3903 17.1329 46.9734 16.6453C46.5536 16.1544 46.044 15.8513 45.4362 15.8513C44.3382 15.8513 43.5386 16.0895 42.8702 16.4516C42.3 16.7604 41.8279 17.1591 41.3598 17.5544C41.2856 17.617 41.2116 17.6795 41.1373 17.7416C40.5893 18.1993 40.0133 18.6449 39.234 18.9789C38.4557 19.3124 37.4635 19.5389 36.0836 19.5389C34.7027 19.5389 33.739 19.3121 33.0258 18.9813C32.314 18.6511 31.8383 18.2112 31.4399 17.7623C31.302 17.607 31.176 17.4537 31.051 17.3017C30.9927 17.2308 30.9346 17.1602 30.8756 17.0897C30.6932 16.8718 30.5062 16.6604 30.2969 16.477C29.8699 16.1029 29.3565 15.8513 28.6015 15.8513C26.4396 15.8513 24.4863 16.6483 22.7161 17.7128L22.7159 17.7126L22.7073 17.7184L21.1528 18.7672L21.1528 18.7672L21.1489 18.7699C21.0586 18.834 20.9608 18.9001 20.861 18.9676C20.7175 19.0645 20.57 19.1642 20.435 19.2646L20.2955 19.3617L20.2954 19.3615L20.2875 19.3677L18.9403 20.4097ZM12.3145 25.8315C12.2767 25.7559 12.2425 25.6798 12.2116 25.6039H12.2122H12.2151H12.2181H12.221H12.224H12.2269H12.2299H12.2328H12.2358H12.2387H12.2417H12.2447H12.2476H12.2506H12.2536H12.2565H12.2595H12.2625H12.2655H12.2685H12.2714H12.2744H12.2774H12.2804H12.2834H12.2864H12.2894H12.2924H12.2954H12.2984H12.3014H12.3044H12.3075H12.3105H12.3135H12.3165H12.3195H12.3226H12.3256H12.3286H12.3317H12.3347H12.3377H12.3408H12.3438H12.3469H12.3499H12.353H12.356H12.3591H12.3621H12.3652H12.3682H12.3713H12.3744H12.3774H12.3805H12.3836H12.3867H12.3897H12.3928H12.3959H12.399H12.4021H12.4052H12.4083H12.4114H12.4145H12.4176H12.4207H12.4238H12.4269H12.43H12.4331H12.4362H12.4393H12.4425H12.4456H12.4487H12.4518H12.455H12.4581H12.4612H12.4644H12.4675H12.4707H12.4738H12.477H12.4801H12.4833H12.4864H12.4896H12.4927H12.4959H12.4991H12.5022H12.5054H12.5086H12.5118H12.5149H12.5181H12.5213H12.5245H12.5277H12.5309H12.5341H12.5372H12.5404H12.5436H12.5469H12.5501H12.5533H12.5565H12.5597H12.5629H12.5661H12.5693H12.5726H12.5758H12.579H12.5823H12.5855H12.5887H12.592H12.5952H12.5985H12.6017H12.6049H12.6082H12.6115H12.6147H12.618H12.6212H12.6245H12.6278H12.631H12.6343H12.6376H12.6409H12.6441H12.6474H12.6507H12.654H12.6573H12.6606H12.6639H12.6672H12.6705H12.6738H12.6771H12.6804H12.6837H12.687H12.6903H12.6936H12.697H12.7003H12.7036H12.7069H12.7103H12.7136H12.7169H12.7203H12.7236H12.727H12.7303H12.7337H12.737H12.7404H12.7437H12.7471H12.7505H12.7538H12.7572H12.7606H12.7639H12.7673H12.7707H12.7741H12.7775H12.7808H12.7842H12.7876H12.791H12.7944H12.7978H12.8012H12.8046H12.808H12.8114H12.8149H12.8183H12.8217H12.8251H12.8285H12.832H12.8354H12.8388H12.8423H12.8457H12.8491H12.8526H12.856H12.8595H12.8629H12.8664H12.8698H12.8733H12.8767H12.8802H12.8837H12.8871H12.8906H12.8941H12.8976H12.901H12.9045H12.908H12.9115H12.915H12.9185H12.922H12.9255H12.929H12.9325H12.936H12.9395H12.943H12.9465H12.9501H12.9536H12.9571H12.9606H12.9642H12.9677H12.9712H12.9748H12.9783H12.9818H12.9854H12.9889H12.9925H12.996H12.9996H13.0032H13.0067H13.0103H13.0138H13.0174H13.021H13.0246H13.0281H13.0317H13.0353H13.0389H13.0425H13.0461H13.0497H13.0533H13.0569H13.0605H13.0641H13.0677H13.0713H13.0749H13.0785H13.0821H13.0858H13.0894H13.093H13.0966H13.1003H13.1039H13.1076H13.1112H13.1148H13.1185H13.1221H13.1258H13.1295H13.1331H13.1368H13.1404H13.1441H13.1478H13.1514H13.1551H13.1588H13.1625H13.1662H13.1699H13.1735H13.1772H13.1809H13.1846H13.1883H13.192H13.1957H13.1994H13.2032H13.2069H13.2106H13.2143H13.218H13.2218H13.2255H13.2292H13.233H13.2367H13.2404H13.2442H13.2479H13.2517H13.2554H13.2592H13.2629H13.2667H13.2705H13.2742H13.278H13.2818H13.2855H13.2893H13.2931H13.2969H13.3007H13.3045H13.3083H13.3121H13.3158H13.3196H13.3235H13.3273H13.3311H13.3349H13.3387H13.3425H13.3463H13.3502H13.354H13.3578H13.3616H13.3655H13.3693H13.3732H13.377H13.3809H13.3847H13.3886H13.3924H13.3963H13.4001H13.404H13.4079H13.4117H13.4156H13.4195H13.4234H13.4272H13.4311H13.435H13.4389H13.4428H13.4467H13.4506H13.4545H13.4584H13.4623H13.4662H13.4701H13.4741H13.478H13.4819H13.4858H13.4898H13.4937H13.4976H13.5016H13.5055H13.5095H13.5134H13.5173H13.5213H13.5253H13.5292H13.5332H13.5371H13.5411H13.5451H13.5491H13.553H13.557H13.561H13.565H13.569H13.573H13.577H13.5809H13.5849H13.589H13.593H13.597H13.601H13.605H13.609H13.613H13.6171H13.6211H13.6251H13.6292H13.6332H13.6372C14.1948 25.6039 14.7407 25.5143 15.2932 25.341L15.3051 25.3373L15.3164 25.3322L17.0374 24.5475L17.0463 24.5434L17.0548 24.5385C17.2889 24.4026 17.5271 24.2545 17.7706 24.0943C17.8133 24.0662 17.8562 24.0378 17.8993 24.009L17.8993 24.0091L17.9053 24.0047L19.4223 22.9064L19.4224 22.9065L19.4264 22.9034L19.5497 22.8091C19.6301 22.7475 19.8535 22.5743 20.1186 22.3689L20.208 22.2997L20.2087 22.2991L21.694 21.1588C21.6943 21.1585 21.6947 21.1582 21.6951 21.1579C21.9335 20.9801 22.1657 20.8107 22.3924 20.6495L23.9473 19.6237C24.083 19.5423 24.2168 19.4644 24.3489 19.3899L24.3538 19.3973C24.3872 19.4466 24.4357 19.5179 24.4969 19.6064C24.6191 19.7832 24.7918 20.0287 24.9938 20.3035C25.3959 20.8507 25.9205 21.5226 26.3958 21.998C28.6434 24.2456 31.5548 25.6039 35.1483 25.6039C38.6292 25.6039 41.7961 24.6721 44.5846 23.1229C45.1598 22.8034 46.0201 22.2283 46.4671 21.9138C46.6314 22.7402 46.7521 23.665 46.849 24.6741C46.9844 26.0829 47.0657 27.536 47.1058 28.945H36.0836C32.5518 28.945 31.4303 28.9451 27.7905 29.4155C27.7355 29.1698 27.6469 28.9061 27.5125 28.6373C27.0321 27.6764 26.1195 27.0744 24.8604 27.0744H14.5725C13.9633 27.0744 13.499 26.9567 13.1403 26.7483C12.7831 26.5406 12.5159 26.2344 12.3145 25.8315ZM9.90144 34.5565C8.46603 34.5565 7.15909 33.9975 6.18844 33.086H19.2488C21.0915 33.086 22.5592 32.7889 24.4673 32.4027C25.3123 32.2317 26.2436 32.0431 27.3322 31.8552C31.4244 31.1486 33.9657 31.1486 36.0829 31.1486H36.0836H47.1367C47.1366 31.5837 47.1329 32.0089 47.1259 32.4214C47.1225 32.6269 47.1191 32.7682 47.117 32.8379L47.1168 32.8379L47.1169 32.8448C47.1206 33.801 46.3567 34.5565 45.4295 34.5565H9.90144ZM42.8709 18.9888C43.8703 18.1511 44.359 17.9218 45.4362 17.9218L42.8709 18.9888ZM9.99476 25.4039C10.1661 26.0445 10.3771 26.5866 10.4625 26.7574C11.2003 28.2329 12.5684 29.145 14.5725 29.145H24.8604C25.3114 29.145 25.5215 29.2851 25.6606 29.5632C25.7593 29.7607 25.7957 29.9786 25.7957 30.0802C23.3247 30.7278 21.4447 31.0155 19.2488 31.0155L9.99476 25.4039Z" fill="#212121" stroke="#212121" stroke-width="0.4"/>
</svg>
