<svg width="51" height="51" viewBox="0 0 51 51" fill="none" xmlns="http://www.w3.org/2000/svg">
<g clip-path="url(#clip0_189_2198)">
<path d="M25.3906 32.1758C28.8424 32.1758 31.6406 29.3776 31.6406 25.9258C31.6406 22.474 28.8424 19.6758 25.3906 19.6758C21.9388 19.6758 19.1406 22.474 19.1406 25.9258C19.1406 29.3776 21.9388 32.1758 25.3906 32.1758Z" stroke="#212121" stroke-width="3.2" stroke-linecap="round" stroke-linejoin="round"/>
<path d="M15.4496 35.8672C14.1664 34.5855 13.1449 33.0664 12.4418 31.3945C11.7069 29.665 11.3281 27.805 11.3281 25.9258C11.3281 24.0466 11.7069 22.1866 12.4418 20.457C13.1449 18.7852 14.1664 17.2661 15.4496 15.9844" stroke="#212121" stroke-width="3.2" stroke-linecap="round" stroke-linejoin="round"/>
<path d="M35.332 15.9844C36.6152 17.2661 37.6368 18.7852 38.3398 20.457C39.0747 22.1866 39.4535 24.0466 39.4535 25.9258C39.4535 27.805 39.0747 29.665 38.3398 31.3945C37.6368 33.0664 36.6152 34.5855 35.332 35.8672" stroke="#212121" stroke-width="3.2" stroke-linecap="round" stroke-linejoin="round"/>
<path d="M9.92203 41.3945C7.92916 39.398 6.33789 37.0376 5.23453 34.4414C4.10003 31.7457 3.51562 28.8505 3.51562 25.9258C3.51562 23.0011 4.10003 20.1059 5.23453 17.4102C6.33789 14.814 7.92916 12.4536 9.92203 10.457" stroke="#212121" stroke-width="3.2" stroke-linecap="round" stroke-linejoin="round"/>
<path d="M40.8594 10.457C42.8522 12.4536 44.4435 14.814 45.5469 17.4102C46.6814 20.1059 47.2658 23.0011 47.2658 25.9258C47.2658 28.8505 46.6814 31.7457 45.5469 34.4414C44.4435 37.0376 42.8522 39.398 40.8594 41.3945" stroke="#212121" stroke-width="3.2" stroke-linecap="round" stroke-linejoin="round"/>
</g>
<defs>
<clipPath id="clip0_189_2198">
<rect width="50" height="50" fill="white" transform="translate(0.390625 0.925781)"/>
</clipPath>
</defs>
</svg>
