<svg width="51" height="51" viewBox="0 0 51 51" fill="none" xmlns="http://www.w3.org/2000/svg">
<g clip-path="url(#clip0_189_2127)">
<path d="M11.4592 36.5827C11.8978 37.0068 12.5923 36.9897 13.0102 36.5445C13.428 36.0993 13.4112 35.3947 12.9725 34.9706L3.82863 26.1325H9.21654H11.9105H14.6044H17.2984H19.9924H22.6863H24.0333H24.7068H25.3803C25.9861 26.1325 26.4773 25.634 26.4773 25.0192C26.4773 24.4045 25.9861 23.906 25.3803 23.906H24.7068H24.0333H22.6862H19.9922H17.2982H14.6042H11.9102H9.21615H3.82811L12.9725 15.0674C13.4112 14.6434 13.428 13.9388 13.0102 13.4935C12.5923 13.0483 11.8978 13.0313 11.4592 13.4552L0.607423 23.9442C0.360151 24.1833 0.213923 24.4882 0.168711 24.8051C0.155415 24.8744 0.148438 24.9459 0.148438 25.0192C0.148438 25.093 0.155502 25.1651 0.169003 25.2349C0.214523 25.5511 0.360663 25.8552 0.607423 26.0937L11.4592 36.5827Z" fill="#212121"/>
<path d="M38.8377 13.4554C38.399 13.0313 37.7045 13.0484 37.2866 13.4936C36.8689 13.9388 36.8857 14.6434 37.3244 15.0675L46.4682 23.9056H24.9166C24.3108 23.9056 23.8196 24.4041 23.8196 25.0188C23.8196 25.6336 24.3108 26.1321 24.9166 26.1321H46.4688L37.3244 34.9707C36.8857 35.3947 36.8689 36.0993 37.2866 36.5446C37.7045 36.9897 38.399 37.0068 38.8377 36.5829L49.6895 26.0939C49.9367 25.8548 50.083 25.5499 50.1282 25.233C50.1415 25.1637 50.1484 25.0922 50.1484 25.0188C50.1484 24.9451 50.1414 24.8729 50.1279 24.8032C50.0824 24.487 49.9362 24.1829 49.6895 23.9444L38.8377 13.4554Z" fill="#212121"/>
<path d="M11.9023 22.1081L11.9023 28.2649C12.0556 29.5819 13.9678 29.5819 14.1211 28.2649V22.1081C13.9724 20.7859 12.051 20.7859 11.9023 22.1081Z" fill="#212121"/>
<path d="M22.7109 22.1081V28.2649C22.8642 29.5819 24.7764 29.5819 24.9297 28.2649V22.1081C24.781 20.7859 22.8596 20.7859 22.7109 22.1081Z" fill="#212121"/>
<path d="M17.3066 23.3279V26.9043C17.5495 28.1165 19.2825 28.1165 19.5254 26.9043V23.3279C19.2892 22.1076 17.5429 22.1076 17.3066 23.3279Z" fill="#212121"/>
<path d="M28.7676 23.3279V26.9043C29.0105 28.1165 30.7435 28.1165 30.9863 26.9043V23.3279C30.7501 22.1076 29.0038 22.1076 28.7676 23.3279Z" fill="#212121"/>
<path d="M35.0664 22.1081V28.2649C35.2197 29.5819 37.1319 29.5819 37.2852 28.2649V22.1081C37.1365 20.7859 35.2151 20.7859 35.0664 22.1081Z" fill="#212121"/>
</g>
<defs>
<clipPath id="clip0_189_2127">
<rect width="50" height="50" fill="white" transform="translate(0.148438 0.019043)"/>
</clipPath>
</defs>
</svg>
