<svg width="51" height="51" viewBox="0 0 51 51" fill="none" xmlns="http://www.w3.org/2000/svg">
<path d="M21.084 32.1458L34.119 14.4876C34.5504 13.903 35.3486 13.7292 35.9842 14.0815C36.5561 14.3985 36.8367 15.0531 36.6925 15.6736L36.6286 15.8786L28.5659 36.2931C27.6909 38.5087 25.1854 39.5954 22.97 38.7204C22.7961 38.6516 22.6269 38.5718 22.4634 38.4812C20.3795 37.326 19.6266 34.7002 20.7817 32.6164L20.9252 32.3762L21.084 32.1458ZM29.0023 26.6808L23.5982 34.0016L23.5148 34.1314C23.1965 34.7058 23.404 35.4296 23.9784 35.7479L24.1179 35.8139C24.6671 36.0308 25.2811 35.81 25.574 35.3187L25.6594 35.1452L29.0023 26.6808ZM38.9179 15.4648C40.4898 16.7383 41.9125 18.2499 43.1309 19.9897C44.2236 21.5502 45.2757 23.44 45.8809 24.9862C46.1952 25.79 45.7988 26.6962 44.995 27.0106C44.1915 27.3252 43.285 26.9285 42.9707 26.125C42.7679 25.607 42.4975 25.0287 42.1846 24.4337L37.9148 26.8989C37.1675 27.3304 36.2119 27.0743 35.7804 26.327C35.3848 25.6418 35.5671 24.7818 36.1759 24.3108L36.3523 24.1925L40.5571 21.7616L40.0769 21.1079C39.4023 20.2277 38.664 19.4217 37.8734 18.692L38.6654 16.6831C38.7444 16.4832 38.8044 16.2801 38.8463 16.0759L38.8956 15.7689L38.9179 15.4648ZM33.4417 12.2121C33.1313 12.3925 32.845 12.6218 32.5946 12.8968L32.3567 13.1868L31.2298 14.7138C29.7677 14.2056 28.2494 13.8767 26.7111 13.7337L26.7107 19.3021C26.7107 20.165 26.0111 20.8645 25.1482 20.8645C24.3571 20.8645 23.7034 20.2768 23.5998 19.5141L23.5857 19.3021L23.5848 13.6994C20.2584 13.936 16.9512 15.0487 14.0208 17.1006C12.3209 18.2909 10.8388 19.8553 9.60674 21.6937L13.9447 24.1981C14.692 24.6295 14.9481 25.5852 14.5166 26.3325C14.1211 27.0175 13.2852 27.2898 12.5729 26.9981L12.3822 26.9043L8.06094 24.4106C7.79476 24.9654 7.54759 25.5362 7.32007 26.1216C7.00744 26.926 6.10197 27.3245 5.29765 27.012C4.49332 26.6993 4.09472 25.7939 4.40734 24.9895C6.08744 20.667 8.73919 16.9839 12.2283 14.5408C18.6698 10.0304 26.6748 9.41888 33.4417 12.2121Z" fill="#212121"/>
</svg>
