<svg width="51" height="51" viewBox="0 0 51 51" fill="none" xmlns="http://www.w3.org/2000/svg">
<path d="M25.4773 40.2448C26.2683 40.2448 26.9221 40.8328 27.0254 41.5955L27.0398 41.8073V44.9323C27.0398 45.7953 26.3402 46.4948 25.4773 46.4948C24.6862 46.4948 24.0325 45.9071 23.9289 45.1444L23.9148 44.9323V41.8073C23.9148 40.9444 24.6143 40.2448 25.4773 40.2448ZM38.0225 35.9265L40.2321 38.1363C40.8423 38.7465 40.8423 39.7357 40.2321 40.3459C39.6221 40.9561 38.6327 40.9561 38.0225 40.3459L35.8127 38.1363C35.2025 37.5261 35.2025 36.5367 35.8127 35.9265C36.4229 35.3163 37.4123 35.3163 38.0225 35.9265ZM15.1407 35.9265C15.7509 36.5367 15.7509 37.5261 15.1407 38.1363L12.931 40.3459C12.3208 40.9561 11.3315 40.9561 10.7213 40.3459C10.1111 39.7357 10.1111 38.7465 10.7213 38.1363L12.931 35.9265C13.5412 35.3163 14.5305 35.3163 15.1407 35.9265ZM25.4852 14.1292C31.8423 14.1292 36.9956 19.2826 36.9956 25.6396C36.9956 31.9967 31.8423 37.15 25.4852 37.15C19.1281 37.15 13.9748 31.9967 13.9748 25.6396C13.9748 19.2826 19.1281 14.1292 25.4852 14.1292ZM25.4852 17.2542C20.854 17.2542 17.0998 21.0085 17.0998 25.6396C17.0998 30.2709 20.854 34.025 25.4852 34.025C30.1162 34.025 33.8706 30.2709 33.8706 25.6396C33.8706 21.0085 30.1162 17.2542 25.4852 17.2542ZM44.7556 24.1153C45.6185 24.1153 46.3181 24.8148 46.3181 25.6778C46.3181 26.4688 45.7302 27.1225 44.9675 27.2261L44.7556 27.2403H41.6306C40.7675 27.2403 40.0681 26.5407 40.0681 25.6778C40.0681 24.8867 40.6558 24.233 41.4185 24.1296L41.6306 24.1153H44.7556ZM9.33984 24.0553C10.2028 24.0553 10.9023 24.7548 10.9023 25.6178C10.9023 26.4088 10.3145 27.0625 9.55186 27.1661L9.33984 27.1803H6.21484C5.35191 27.1803 4.65234 26.4807 4.65234 25.6178C4.65234 24.8267 5.24018 24.173 6.00282 24.0694L6.21484 24.0553H9.33984ZM12.7558 10.7821L12.931 10.9334L15.1407 13.1431C15.7509 13.7533 15.7509 14.7426 15.1407 15.3528C14.586 15.9075 13.7179 15.9579 13.1062 15.5041L12.931 15.3528L10.7213 13.1431C10.1111 12.5329 10.1111 11.5436 10.7213 10.9334C11.276 10.3787 12.1441 10.3282 12.7558 10.7821ZM40.2321 10.9334C40.7868 11.4881 40.8373 12.3562 40.3835 12.9678L40.2321 13.1431L38.0225 15.3528C37.4123 15.963 36.4229 15.963 35.8127 15.3528C35.2581 14.7981 35.2077 13.93 35.6614 13.3183L35.8127 13.1431L38.0225 10.9334C38.6327 10.3232 39.6221 10.3232 40.2321 10.9334ZM25.4856 4.78442C26.2766 4.78442 26.9304 5.37226 27.0339 6.1349L27.0481 6.34692V9.47192C27.0481 10.3349 26.3487 11.0344 25.4856 11.0344C24.6946 11.0344 24.041 10.4466 23.9375 9.68394L23.9231 9.47192V6.34692C23.9231 5.48399 24.6227 4.78442 25.4856 4.78442Z" fill="#212121"/>
</svg>
