<svg width="51" height="51" viewBox="0 0 51 51" fill="none" xmlns="http://www.w3.org/2000/svg">
<path d="M22.2846 33.4481L26.9427 28.2654C27.5196 27.6235 28.5075 27.571 29.1493 28.1479C29.7327 28.6722 29.8294 29.5364 29.4087 30.1712L29.2669 30.3543L26.9519 32.9301H31.6946C32.9306 32.9301 33.6494 34.2791 33.0385 35.2914L32.9166 35.4662L26.226 43.8651C25.6883 44.5399 24.7052 44.6514 24.0304 44.1137C23.4166 43.6247 23.2689 42.7679 23.6512 42.1091L23.7819 41.9179L28.4523 36.0551H23.4466C22.1693 36.0551 21.4619 34.6268 22.1487 33.6208L22.2846 33.4481ZM27.5706 11.0749C34.1716 11.0749 37.9164 15.4443 38.461 20.721H38.6277C42.8756 20.721 46.3194 24.156 46.3194 28.3931C46.3194 32.6301 42.8756 36.0649 38.6277 36.0649L34.9025 36.067C35.2029 35.622 35.3783 35.0856 35.3783 34.5083C35.3783 33.9281 35.2012 33.3893 34.8981 32.9431L38.511 32.9449C41.1381 32.9449 43.2677 30.8589 43.2677 28.2858C43.2677 25.7124 41.1381 23.6264 38.511 23.6264H37.0725C36.3114 23.6266 35.6471 23.0422 35.6471 22.2974C35.6471 17.5372 31.8858 14.1949 27.5706 14.1949C23.2554 14.1949 19.4941 17.5975 19.4941 22.2974C19.4941 23.0422 18.8296 23.6266 18.0688 23.6264H16.6301C14.003 23.6264 11.8734 25.7124 11.8734 28.2858C11.8734 30.8589 14.003 32.9449 16.6301 32.9449L20.3003 32.9431C19.9972 33.3893 19.82 33.9281 19.82 34.5083C19.82 35.0856 19.9955 35.622 20.296 36.067L16.5136 36.0649C12.2655 36.0649 8.82172 32.6301 8.82172 28.3931C8.82172 24.156 12.2655 20.721 16.5136 20.721H16.6802C17.228 15.4096 20.9695 11.0749 27.5706 11.0749ZM21.3171 4.8064C24.6852 4.8064 27.6693 6.50461 29.4423 9.10196C28.8377 9.02898 28.2131 8.9916 27.5706 8.9916C26.7494 8.9916 25.9577 9.05219 25.1983 9.16944C24.0979 8.38769 22.7541 7.9314 21.3171 7.9314C18.0529 7.9314 15.2714 10.2852 14.7142 13.4654L14.5632 14.3273C14.3886 15.324 13.523 16.0511 12.5111 16.0511L11.488 16.0511C9.43758 16.0511 7.77539 17.7133 7.77539 19.7637C7.77539 20.7858 8.18845 21.7114 8.85675 22.3829C8.2007 23.2179 7.68029 24.1645 7.32539 25.1893C5.69962 23.9401 4.65039 21.9745 4.65039 19.7637C4.65039 16.1176 7.5042 13.138 11.1 12.9369L11.6361 12.9261C12.4469 8.29829 16.4873 4.8064 21.3171 4.8064Z" fill="#212121"/>
</svg>
