<svg width="51" height="51" viewBox="0 0 51 51" fill="none" xmlns="http://www.w3.org/2000/svg">
<path d="M25.39 5.09253C36.8962 5.09253 46.2233 14.4217 46.2233 25.9259C46.2233 37.43 36.8962 46.7592 25.39 46.7592C13.8837 46.7592 4.55664 37.43 4.55664 25.9259C4.55664 14.4217 13.8837 5.09253 25.39 5.09253ZM25.39 8.56545C15.8171 8.56545 8.02956 16.3529 8.02956 25.9259C8.02956 35.4988 15.8171 43.2863 25.39 43.2863C34.9629 43.2863 42.7504 35.4988 42.7504 25.9259C42.7504 16.3529 34.9629 8.56545 25.39 8.56545ZM23.8275 13.4259C24.6181 13.4259 25.2723 14.0141 25.3756 14.7764L25.39 14.9884V25.9259H32.1608C33.0233 25.9259 33.7233 26.6259 33.7233 27.4884C33.7233 28.279 33.1352 28.9332 32.3727 29.0365L32.1608 29.0509H23.8275C23.0368 29.0509 22.3827 28.4627 22.2793 27.7002L22.265 27.4884V14.9884C22.265 14.1259 22.965 13.4259 23.8275 13.4259Z" fill="#212121"/>
</svg>
