<svg width="51" height="51" viewBox="0 0 51 51" fill="none" xmlns="http://www.w3.org/2000/svg">
<path d="M7.96094 36.4773C8.82387 36.4773 9.52344 37.1769 9.52344 38.0398C9.52344 38.9027 8.82387 39.6023 7.96094 39.6023C7.098 39.6023 6.39844 38.9027 6.39844 38.0398C6.39844 37.1769 7.098 36.4773 7.96094 36.4773ZM14.2081 8.36205H36.0932C36.9561 8.36205 37.6557 9.06161 37.6557 9.92455C37.6557 10.7156 37.0678 11.3693 36.3051 11.4728L36.0932 11.487H22.5461L42.9072 19.3958C44.0961 19.8576 44.2391 21.4402 43.2418 22.1308L43.0414 22.2494L12.8581 37.3688C12.0865 37.7554 11.1477 37.4431 10.7612 36.6717C10.4069 35.9644 10.6397 35.1167 11.2753 34.6825L11.4585 34.5748L38.4918 21.0331L13.6423 11.381C12.1005 10.7822 12.4438 8.56677 13.9898 8.37527L14.2081 8.36205ZM41.2943 8.35229C42.1572 8.35229 42.8568 9.05186 42.8568 9.9148C42.8568 10.7777 42.1572 11.4773 41.2943 11.4773C40.4314 11.4773 39.7318 10.7777 39.7318 9.9148C39.7318 9.05186 40.4314 8.35229 41.2943 8.35229Z" fill="#212121"/>
</svg>
