<svg width="51" height="51" viewBox="0 0 51 51" fill="none" xmlns="http://www.w3.org/2000/svg">
<path d="M40.0633 21.4727C43.5171 21.4727 46.3175 24.2707 46.3175 27.7227C46.3175 31.0515 43.7135 33.7721 40.4308 33.9621L39.9994 33.9723L39.7873 33.9867L37.3585 33.9873C37.7562 34.7646 37.9804 35.644 37.9804 36.5761C37.9804 39.7627 35.5789 42.3177 32.4075 42.3177C29.2721 42.3177 27.375 40.4809 26.865 37.9367C26.6954 37.0907 27.2439 36.2671 28.09 36.0975C28.9362 35.928 29.7596 36.4765 29.9291 37.3225C30.1652 38.5002 30.8804 39.1927 32.4075 39.1927C33.8083 39.1927 34.8554 38.0786 34.8554 36.5761C34.8554 35.1423 33.6723 33.9727 32.2039 33.9727L6.18555 33.9867C5.32261 33.9867 4.62305 33.2871 4.62305 32.4242C4.62305 31.6332 5.21088 30.9794 5.97353 30.8759L6.18555 30.8617L31.9919 30.8619L32.2039 30.8477C32.3375 30.8477 32.4702 30.8523 32.6016 30.8611L39.8344 30.8644L39.9477 30.8519L40.3648 30.8334C41.9519 30.6819 43.1925 29.3469 43.1925 27.7227C43.1925 25.9971 41.7919 24.5977 40.0633 24.5977C38.5035 24.5977 37.2006 25.7411 36.9702 27.2446L36.9127 27.7413C36.7635 28.4963 36.0756 29.0436 35.286 28.9961C34.4246 28.944 33.7685 28.2038 33.8204 27.3423C34.0189 24.0523 36.7514 21.4727 40.0633 21.4727ZM25.485 25.6394H6.22509C5.36215 25.6394 4.66259 24.9398 4.66259 24.0769C4.66259 23.2859 5.25042 22.6321 6.01307 22.5286L6.22509 22.5144H25.485C28.3617 22.5144 30.6939 20.1823 30.6939 17.3054C30.6939 14.4286 28.3617 12.0964 25.485 12.0964C22.6081 12.0964 20.2759 14.4286 20.2759 17.3054C20.2759 18.1684 19.5763 18.8679 18.7134 18.8679C17.8505 18.8679 17.1509 18.1684 17.1509 17.3054C17.1509 12.7027 20.8822 8.97144 25.485 8.97144C30.0877 8.97144 33.8189 12.7027 33.8189 17.3054C33.8189 21.7538 30.3337 25.3882 25.945 25.6269L25.485 25.6394Z" fill="#212121"/>
</svg>
