<svg width="51" height="51" viewBox="0 0 51 51" fill="none" xmlns="http://www.w3.org/2000/svg">
<path d="M28.5074 9.36667C27.8826 8.77149 26.8934 8.79553 26.2982 9.42038C25.7032 10.0452 25.7272 11.0343 26.352 11.6294L39.3755 24.0346H8.67969C7.81677 24.0346 7.11719 24.7342 7.11719 25.5971C7.11719 26.46 7.81677 27.1596 8.67969 27.1596L39.3763 27.1596L26.352 39.5655C25.7272 40.1607 25.7032 41.1496 26.2982 41.7746C26.8934 42.3994 27.8826 42.4234 28.5074 41.8284L43.9635 27.1061C44.3156 26.7705 44.5239 26.3426 44.5883 25.8978C44.6073 25.8005 44.6172 25.7 44.6172 25.5971C44.6172 25.4936 44.6071 25.3923 44.5879 25.2944C44.5231 24.8507 44.3149 24.4238 43.9635 24.089L28.5074 9.36667Z" fill="#212121"/>
</svg>
