<svg width="51" height="51" viewBox="0 0 51 51" fill="none" xmlns="http://www.w3.org/2000/svg">
<path d="M23.227 41.8277C23.8518 42.4229 24.8409 42.3988 25.4361 41.774C26.0311 41.1491 26.0072 40.1601 25.3824 39.5649L12.3589 27.1597H43.0547C43.9176 27.1597 44.6172 26.4601 44.6172 25.5972C44.6172 24.7343 43.9176 24.0347 43.0547 24.0347L12.3581 24.0347L25.3824 11.6289C26.0072 11.0337 26.0311 10.0447 25.4361 9.4197C24.8409 8.79491 23.8518 8.77095 23.227 9.36595L7.77092 24.0882C7.41873 24.4239 7.21046 24.8518 7.14606 25.2966C7.12712 25.3939 7.11719 25.4943 7.11719 25.5972C7.11719 25.7007 7.12725 25.802 7.14648 25.8999C7.21131 26.3437 7.41946 26.7705 7.77092 27.1053L23.227 41.8277Z" fill="#212121"/>
</svg>
