<svg width="51" height="51" viewBox="0 0 51 51" fill="none" xmlns="http://www.w3.org/2000/svg">
<path d="M25.39 5.08643C26.2529 5.08643 26.9525 5.78599 26.9525 6.64893V9.25997H31.1191C33.1327 9.25997 34.765 10.8923 34.765 12.9058V23.8434H39.4525C41.466 23.8434 43.0983 25.4757 43.0983 27.4892V43.1142C43.0983 45.1277 41.466 46.76 39.4525 46.76H20.7119H20.7025H11.3275C9.31393 46.76 7.68164 45.1277 7.68164 43.1142V25.5529C7.68164 24.2636 8.36266 23.07 9.47272 22.4142L16.015 18.5482V12.9058C16.015 10.8923 17.6473 9.25997 19.6608 9.25997H23.8275V6.64893C23.8275 5.78599 24.5271 5.08643 25.39 5.08643ZM19.14 17.6317C20.8268 17.8817 22.265 19.3121 22.265 21.2442V43.635H28.515V27.4892C28.515 25.6523 29.8731 24.1329 31.64 23.8802V12.9058C31.64 12.6181 31.4069 12.385 31.1191 12.385H25.4096L25.39 12.3851L25.3704 12.385H19.6608C19.3732 12.385 19.14 12.6182 19.14 12.9058V17.6317ZM32.1608 26.9684C31.8731 26.9684 31.64 27.2015 31.64 27.4892V43.635H39.4525C39.7402 43.635 39.9733 43.4017 39.9733 43.1142V27.4892C39.9733 27.2015 39.7402 26.9684 39.4525 26.9684H32.1608ZM18.3542 20.7958L11.0625 25.1046C10.9039 25.1982 10.8066 25.3688 10.8066 25.5529V43.1142C10.8066 43.4019 11.0398 43.635 11.3275 43.635H19.14V21.2442C19.14 20.8409 18.7014 20.5906 18.3542 20.7958Z" fill="#212121"/>
</svg>
