<svg width="51" height="51" viewBox="0 0 51 51" fill="none" xmlns="http://www.w3.org/2000/svg">
<path d="M12.8449 10.3134C13.4551 10.9236 13.4551 11.9129 12.8449 12.5231C5.92933 19.4386 5.92933 30.651 12.8449 37.5664C13.4551 38.1766 13.4551 39.166 12.8449 39.7762C12.2347 40.3864 11.2453 40.3864 10.6351 39.7762C2.49922 31.6401 2.49922 18.4493 10.6351 10.3134C11.2453 9.70317 12.2347 9.70317 12.8449 10.3134ZM40.098 10.3134C48.2338 18.4493 48.2338 31.6401 40.098 39.7762C39.4878 40.3864 38.4984 40.3864 37.8882 39.7762C37.278 39.166 37.278 38.1766 37.8882 37.5664C44.8038 30.651 44.8038 19.4386 37.8882 12.5231C37.278 11.9129 37.278 10.9236 37.8882 10.3134C38.4984 9.70317 39.4878 9.70317 40.098 10.3134ZM18.7374 16.2059C19.3476 16.8161 19.3476 17.8054 18.7374 18.4156C15.0762 22.0768 15.0762 28.0126 18.7374 31.6739C19.3476 32.2841 19.3476 33.2735 18.7374 33.8837C18.1272 34.4939 17.1379 34.4939 16.5277 33.8837C11.6461 29.002 11.6461 21.0874 16.5277 16.2059C17.1379 15.5957 18.1272 15.5957 18.7374 16.2059ZM34.2053 16.2059C39.087 21.0874 39.087 29.002 34.2053 33.8837C33.5951 34.4939 32.6059 34.4939 31.9957 33.8837C31.3855 33.2735 31.3855 32.2841 31.9957 31.6739C35.6567 28.0126 35.6567 22.0768 31.9957 18.4156C31.3855 17.8054 31.3855 16.8161 31.9957 16.2059C32.6059 15.5957 33.5951 15.5957 34.2053 16.2059ZM25.3665 21.9197C27.0924 21.9197 28.4915 23.3189 28.4915 25.0447C28.4915 26.7705 27.0924 28.1697 25.3665 28.1697C23.6407 28.1697 22.2415 26.7705 22.2415 25.0447C22.2415 23.3189 23.6407 21.9197 25.3665 21.9197Z" fill="#212121"/>
</svg>
