<svg width="51" height="51" viewBox="0 0 51 51" fill="none" xmlns="http://www.w3.org/2000/svg">
<path d="M22.3453 5.32009C24.0909 3.84805 26.6434 3.84805 28.3891 5.32011L42.4516 17.1787C43.5076 18.0693 44.1172 19.3805 44.1172 20.7621V41.1845C44.1172 43.198 42.4849 44.8303 40.4714 44.8303H33.1797C31.1661 44.8303 29.5339 43.198 29.5339 41.1845V29.7262C29.5339 29.4387 29.3007 29.2053 29.013 29.2053H21.7214C21.4336 29.2053 21.2005 29.4387 21.2005 29.7262V41.1845C21.2005 43.198 19.5682 44.8303 17.5547 44.8303H10.263C8.24948 44.8303 6.61719 43.198 6.61719 41.1845V20.7621C6.61719 19.3805 7.22667 18.0693 8.28285 17.1787L22.3453 5.32009ZM26.3745 7.70907C25.7926 7.21838 24.9418 7.21838 24.3599 7.70907L10.2974 19.5676C9.94535 19.8645 9.74219 20.3016 9.74219 20.7621V41.1845C9.74219 41.4722 9.97537 41.7053 10.263 41.7053H17.5547C17.8423 41.7053 18.0755 41.4722 18.0755 41.1845V29.7262C18.0755 27.7126 19.7078 26.0803 21.7214 26.0803H29.013C31.0266 26.0803 32.6589 27.7126 32.6589 29.7262V41.1845C32.6589 41.4722 32.892 41.7053 33.1797 41.7053H40.4714C40.7591 41.7053 40.9922 41.4722 40.9922 41.1845V20.7621C40.9922 20.3016 40.7891 19.8645 40.437 19.5676L26.3745 7.70907Z" fill="#212121"/>
</svg>
