<svg width="51" height="51" viewBox="0 0 51 51" fill="none" xmlns="http://www.w3.org/2000/svg">
<path d="M13.3108 6.44107C13.3108 5.70309 12.7944 5.06574 12.0725 4.91259C11.3524 4.75982 10.6237 5.13036 10.3226 5.80155L10.3194 5.80851C10.3153 5.81747 10.3073 5.83443 10.2954 5.85861C10.2718 5.90703 10.2331 5.98389 10.1794 6.08291C10.0715 6.28182 9.90605 6.56493 9.6843 6.88374C9.23088 7.53559 8.59259 8.26374 7.79544 8.76172C7.06355 9.21891 6.84088 10.1828 7.29807 10.9147C7.75526 11.6466 8.71919 11.8693 9.45109 11.4121C9.71065 11.2499 9.95546 11.0759 10.1858 10.8945V15.8161C10.1858 16.679 10.8853 17.3786 11.7483 17.3786C12.6112 17.3786 13.3108 16.679 13.3108 15.8161V6.44107Z" fill="#212121"/>
<path d="M43.5176 39.7744C43.5176 38.9115 42.818 38.2119 41.9551 38.2119H23.2051C22.3421 38.2119 21.6426 38.9115 21.6426 39.7744C21.6426 40.6373 22.3421 41.3369 23.2051 41.3369H41.9551C42.818 41.3369 43.5176 40.6373 43.5176 39.7744Z" fill="#212121"/>
<path d="M43.5176 26.2197C43.5176 25.3566 42.818 24.6572 41.9551 24.6572H23.2051C22.3421 24.6572 21.6426 25.3566 21.6426 26.2197C21.6426 27.0826 22.3421 27.7822 23.2051 27.7822H41.9551C42.818 27.7822 43.5176 27.0826 43.5176 26.2197Z" fill="#212121"/>
<path d="M43.5176 12.6912C43.5176 11.8282 42.818 11.1287 41.9551 11.1287H23.2051C22.3421 11.1287 21.6426 11.8282 21.6426 12.6912C21.6426 13.5541 22.3421 14.2537 23.2051 14.2537H41.9551C42.818 14.2537 43.5176 13.5541 43.5176 12.6912Z" fill="#212121"/>
<path d="M11.5417 22.6283C10.9138 22.5175 10.1323 22.7667 9.72786 23.171C9.11765 23.7812 8.12832 23.7812 7.51815 23.171C6.90799 22.5606 6.90801 21.5715 7.51824 20.9612C8.6763 19.8032 10.499 19.271 12.0847 19.5508C12.9126 19.6969 13.7633 20.0808 14.4089 20.8126C15.066 21.5573 15.3939 22.53 15.3939 23.6285C15.3939 24.9192 14.8292 25.8785 14.1315 26.5879C13.5528 27.1762 12.8171 27.6515 12.2444 28.0215L12.0788 28.1287C11.672 28.3931 11.3403 28.6223 11.0748 28.8369H13.8314C14.6943 28.8369 15.3939 29.5365 15.3939 30.3994C15.3939 31.2623 14.6943 31.9619 13.8314 31.9619H8.62305C7.76011 31.9619 7.06055 31.2623 7.06055 30.3994C7.06055 27.6627 9.11024 26.3308 10.3419 25.5306L10.4673 25.4492C11.1284 25.0196 11.5781 24.7275 11.9037 24.3965C12.1825 24.1129 12.2689 23.9006 12.2689 23.6285C12.2689 23.1648 12.1411 22.9656 12.0657 22.8802C11.9789 22.7819 11.8204 22.6775 11.5417 22.6283Z" fill="#212121"/>
<path d="M6.9967 45.0458C6.9967 45.0458 7.19012 45.2204 7.00627 45.0554L7.01743 45.0662L7.0451 45.0927C7.06587 45.112 7.09133 45.1354 7.12147 45.1616C7.18172 45.2143 7.26099 45.28 7.35937 45.3537C7.55593 45.5012 7.83064 45.6827 8.18404 45.8593C8.89595 46.2154 9.91495 46.5452 11.2266 46.5452C12.5582 46.5452 13.7181 46.1673 14.5626 45.4212C15.4124 44.6704 15.8341 43.6352 15.8006 42.5889C15.7728 41.7214 15.4537 40.9312 14.9138 40.2952C15.4537 39.6591 15.7728 38.8689 15.8006 38.0014C15.8341 36.9552 15.4124 35.92 14.5626 35.1691C13.7181 34.4231 12.5582 34.0452 11.2266 34.0452C9.91495 34.0452 8.89595 34.375 8.18404 34.731C7.83064 34.9077 7.55593 35.0891 7.35937 35.2366C7.26099 35.3104 7.18172 35.376 7.12147 35.4287C7.09133 35.455 7.06587 35.4783 7.0451 35.4977L7.01743 35.5241L7.0062 35.535L7.00133 35.54L6.99929 35.542L6.9967 35.5445C6.38652 36.1547 6.38652 37.1439 6.9967 37.7541C7.59864 38.3562 8.56952 38.3643 9.18143 37.7787C9.18843 37.7727 9.2061 37.7577 9.23437 37.7366C9.29822 37.6887 9.41414 37.6097 9.58158 37.526C9.91133 37.3612 10.4548 37.1702 11.2266 37.1702C11.9782 37.1702 12.3432 37.3783 12.4935 37.511C12.6384 37.6391 12.6812 37.7758 12.6772 37.9014C12.6729 38.0358 12.61 38.2175 12.4198 38.3823C12.2359 38.5418 11.8716 38.7327 11.2266 38.7327C10.3636 38.7327 9.66406 39.4322 9.66406 40.2952C9.66406 41.1581 10.3636 41.8577 11.2266 41.8577C11.8716 41.8577 12.2359 42.0485 12.4198 42.2081C12.61 42.3729 12.6729 42.5545 12.6772 42.6889C12.6812 42.8145 12.6384 42.9512 12.4935 43.0793C12.3432 43.212 11.9782 43.4202 11.2266 43.4202C10.4548 43.4202 9.91133 43.2291 9.58158 43.0643C9.41414 42.9806 9.29822 42.9016 9.23437 42.8537C9.2061 42.8327 9.18843 42.8177 9.18143 42.8116C8.56952 42.226 7.59864 42.2341 6.9967 42.8362C6.38652 43.4464 6.38652 44.4356 6.9967 45.0458ZM7.00133 35.54L6.99929 35.542C7.01322 35.5304 7.41785 35.1941 7.00133 35.54Z" fill="#212121"/>
</svg>
