<svg width="51" height="51" viewBox="0 0 51 51" fill="none" xmlns="http://www.w3.org/2000/svg">
<path d="M12.5631 10.4423C19.6473 3.3581 31.1331 3.3581 38.2172 10.4423C45.3014 17.5265 45.3014 29.0123 38.2172 36.0965L35.7443 38.5421C33.9218 40.3309 31.5568 42.6309 28.6489 45.4423C26.8316 47.1994 23.9487 47.1992 22.1318 45.4419L14.8587 38.3671C13.9446 37.4696 13.1795 36.7127 12.5631 36.0965C5.47895 29.0123 5.47895 17.5265 12.5631 10.4423ZM36.0075 12.652C30.1437 6.78819 20.6367 6.78819 14.7728 12.652C8.90906 18.5158 8.90906 28.0229 14.7728 33.8867L17.8709 36.944C19.577 38.6136 21.7216 40.6977 24.3043 43.1956C24.91 43.7813 25.871 43.7815 26.4766 43.1959L33.5493 36.3177C34.5264 35.3588 35.3458 34.5484 36.0075 33.8867C41.8714 28.0229 41.8714 18.5158 36.0075 12.652ZM25.3902 17.5895C28.8437 17.5895 31.6435 20.3891 31.6435 23.8427C31.6435 27.2963 28.8437 30.0959 25.3902 30.0959C21.9366 30.0959 19.137 27.2963 19.137 23.8427C19.137 20.3891 21.9366 17.5895 25.3902 17.5895ZM25.3902 20.7145C23.6625 20.7145 22.262 22.115 22.262 23.8427C22.262 25.5704 23.6625 26.9709 25.3902 26.9709C27.1179 26.9709 28.5185 25.5704 28.5185 23.8427C28.5185 22.115 27.1179 20.7145 25.3902 20.7145Z" fill="#212121"/>
</svg>
