<svg width="51" height="51" viewBox="0 0 51 51" fill="none" xmlns="http://www.w3.org/2000/svg">
<g clip-path="url(#clip0_189_2182)">
<path d="M35.1584 14.9527C35.1496 16.1906 34.8868 17.4135 34.3863 18.5457C33.8857 19.6779 33.158 20.6952 32.2482 21.5347C30.3309 23.2819 27.8304 24.2503 25.2365 24.2503C22.6425 24.2503 20.1421 23.2819 18.2248 21.5347C17.3092 20.7001 16.5777 19.6836 16.0773 18.5503C15.5768 17.4169 15.3184 16.1916 15.3184 14.9527C15.3184 13.7138 15.5768 12.4885 16.0773 11.3551C16.5777 10.2218 17.3092 9.2053 18.2248 8.37068C20.1358 6.61104 22.6387 5.63428 25.2365 5.63428C27.8343 5.63428 30.3371 6.61104 32.2482 8.37068C33.1607 9.20798 33.8903 10.2249 34.3911 11.3576C34.8919 12.4903 35.1531 13.7143 35.1584 14.9527Z" stroke="#212121" stroke-width="3.2" stroke-linecap="round" stroke-linejoin="round"/>
<path d="M36.9545 35.2651C36.9474 36.7276 36.6384 38.1729 36.0469 39.5105C35.4554 40.8481 34.5941 42.0492 33.517 43.0385C31.2577 45.1124 28.3025 46.2631 25.2357 46.2631C22.1689 46.2631 19.2137 45.1124 16.9545 43.0385C15.8712 42.052 15.0058 40.8501 14.4136 39.5099C13.8215 38.1696 13.5156 36.7206 13.5156 35.2553C13.5156 33.7901 13.8215 32.341 14.4136 31.0008C15.0058 29.6606 15.8712 28.4587 16.9545 27.4721C19.2137 25.3983 22.1689 24.2476 25.2357 24.2476C28.3025 24.2476 31.2577 25.3983 33.517 27.4721C34.5965 28.4637 35.4592 29.668 36.0508 31.0091C36.6424 32.3502 36.9501 33.7993 36.9545 35.2651Z" stroke="#212121" stroke-width="3.2" stroke-linecap="round" stroke-linejoin="round"/>
</g>
<defs>
<clipPath id="clip0_189_2182">
<rect width="50" height="50" fill="white" transform="translate(0.236328 0.94873)"/>
</clipPath>
</defs>
</svg>
