<svg width="51" height="51" viewBox="0 0 51 51" fill="none" xmlns="http://www.w3.org/2000/svg">
<path d="M39.7311 9.39404C38.0053 9.39404 36.6061 10.7931 36.6061 12.519C36.6061 14.2449 38.0053 15.644 39.7311 15.644C41.457 15.644 42.8561 14.2449 42.8561 12.519C42.8561 10.7931 41.457 9.39404 39.7311 9.39404ZM33.4811 12.519C33.4811 9.06727 36.2792 6.26904 39.7311 6.26904C43.183 6.26904 45.9811 9.06727 45.9811 12.519C45.9811 15.9708 43.183 18.769 39.7311 18.769C39.394 18.769 39.0632 18.7424 38.7407 18.691L34.4947 25.6876C35.1701 26.6859 35.5645 27.8897 35.5645 29.1857C35.5645 32.6376 32.7663 35.4357 29.3145 35.4357C27.4334 35.4357 25.7465 34.6049 24.6007 33.2901L16.8058 37.187C16.8115 37.297 16.8145 37.4076 16.8145 37.519C16.8145 40.9709 14.0162 43.769 10.5645 43.769C7.11268 43.769 4.31445 40.9709 4.31445 37.519C4.31445 34.0672 7.11268 31.269 10.5645 31.269C12.7856 31.269 14.7362 32.4278 15.8447 34.1736L23.202 30.4955C23.112 30.0732 23.0645 29.6349 23.0645 29.1857C23.0645 25.7338 25.8626 22.9357 29.3145 22.9357C30.3192 22.9357 31.2686 23.1728 32.1097 23.594L35.8551 17.4223C34.409 16.2776 33.4811 14.5067 33.4811 12.519ZM29.3145 26.0607C27.5886 26.0607 26.1895 27.4599 26.1895 29.1857C26.1895 30.9115 27.5886 32.3107 29.3145 32.3107C31.0403 32.3107 32.4395 30.9115 32.4395 29.1857C32.4395 27.4599 31.0403 26.0607 29.3145 26.0607ZM10.5645 34.394C8.83856 34.394 7.43945 35.7932 7.43945 37.519C7.43945 39.2449 8.83856 40.644 10.5645 40.644C12.2903 40.644 13.6895 39.2449 13.6895 37.519C13.6895 35.7932 12.2903 34.394 10.5645 34.394Z" fill="#212121"/>
</svg>
