<svg width="51" height="51" viewBox="0 0 51 51" fill="none" xmlns="http://www.w3.org/2000/svg">
<path d="M25.4853 8.97461C32.0863 8.97461 35.8309 13.344 36.3757 18.6207H36.5421C40.7903 18.6207 44.234 22.0556 44.234 26.2927C44.234 30.5298 40.7903 33.9645 36.5421 33.9645L35.328 33.9641L32.0328 39.4527C31.6013 40.2 30.6457 40.456 29.8984 40.0245C29.2134 39.6291 28.9411 38.7931 29.2328 38.081L29.3265 37.8902L31.7196 33.9641H27.2696L23.974 39.4527C23.5426 40.2 22.5869 40.456 21.8396 40.0245C21.1545 39.6291 20.8823 38.7931 21.174 38.081L21.2677 37.8902L23.6613 33.9641H19.2092L15.9152 39.4527C15.4838 40.2 14.5282 40.456 13.7808 40.0245C13.0958 39.6291 12.8235 38.7931 13.1153 38.081L13.2089 37.8902L15.6009 33.9641L14.4282 33.9645C10.1801 33.9645 6.73633 30.5298 6.73633 26.2927C6.73633 22.0556 10.1801 18.6207 14.4282 18.6207H14.5948C15.1425 13.3093 18.8841 8.97461 25.4853 8.97461ZM25.4853 12.0946C21.1699 12.0946 17.4087 15.4972 17.4087 20.1971C17.4087 20.9418 16.7442 21.5262 15.9833 21.5262H14.5447C11.9176 21.5262 9.78797 23.612 9.78797 26.1854C9.78797 28.7585 11.9176 30.8445 14.5447 30.8445H36.4257C39.0528 30.8445 41.1824 28.7585 41.1824 26.1854C41.1824 23.612 39.0528 21.5262 36.4257 21.5262H34.9869C34.2261 21.5262 33.5617 20.9418 33.5617 20.1971C33.5617 15.4369 29.8005 12.0946 25.4853 12.0946Z" fill="#212121"/>
</svg>
