<svg width="51" height="51" viewBox="0 0 51 51" fill="none" xmlns="http://www.w3.org/2000/svg">
<path d="M20.7977 38.455C21.6607 38.455 22.3603 39.1545 22.3603 40.0175C22.3603 40.8804 21.6607 41.58 20.7977 41.58C19.9347 41.58 19.2352 40.8804 19.2352 40.0175C19.2352 39.1545 19.9347 38.455 20.7977 38.455ZM30.1728 38.455C31.0357 38.455 31.7353 39.1545 31.7353 40.0175C31.7353 40.8804 31.0357 41.58 30.1728 41.58C29.3096 41.58 28.6103 40.8804 28.6103 40.0175C28.6103 39.1545 29.3096 38.455 30.1728 38.455ZM16.1102 36.3716C16.9731 36.3716 17.6727 37.0712 17.6727 37.9341C17.6727 38.797 16.9731 39.4966 16.1102 39.4966C15.2472 39.4966 14.5477 38.797 14.5477 37.9341C14.5477 37.0712 15.2472 36.3716 16.1102 36.3716ZM25.4853 36.3716C26.3482 36.3716 27.0478 37.0712 27.0478 37.9341C27.0478 38.797 26.3482 39.4966 25.4853 39.4966C24.6221 39.4966 23.9228 38.797 23.9228 37.9341C23.9228 37.0712 24.6221 36.3716 25.4853 36.3716ZM34.8603 36.3716C35.7232 36.3716 36.4228 37.0712 36.4228 37.9341C36.4228 38.797 35.7232 39.4966 34.8603 39.4966C33.9971 39.4966 33.2978 38.797 33.2978 37.9341C33.2978 37.0712 33.9971 36.3716 34.8603 36.3716ZM25.4853 8.97461C32.0863 8.97461 35.8309 13.344 36.3757 18.6207H36.5421C40.7903 18.6207 44.234 22.0556 44.234 26.2927C44.234 30.5298 40.7903 33.9645 36.5421 33.9645H14.4282C10.1801 33.9645 6.73633 30.5298 6.73633 26.2927C6.73633 22.0556 10.1801 18.6207 14.4282 18.6207H14.5948C15.1425 13.3093 18.8841 8.97461 25.4853 8.97461ZM25.4853 12.0946C21.1699 12.0946 17.4087 15.4972 17.4087 20.1971C17.4087 20.9418 16.7442 21.5262 15.9833 21.5262H14.5447C11.9176 21.5262 9.78797 23.612 9.78797 26.1854C9.78797 28.7585 11.9176 30.8445 14.5447 30.8445H36.4257C39.0528 30.8445 41.1824 28.7585 41.1824 26.1854C41.1824 23.612 39.0528 21.5262 36.4257 21.5262H34.9869C34.2261 21.5262 33.5617 20.9418 33.5617 20.1971C33.5617 15.4369 29.8005 12.0946 25.4853 12.0946Z" fill="#212121"/>
</svg>
