<svg width="51" height="51" viewBox="0 0 51 51" fill="none" xmlns="http://www.w3.org/2000/svg">
<path d="M25.485 4.8064C29.0954 4.8064 32.0459 7.63233 32.2452 11.1928L32.2559 11.577L32.2579 28.1439L32.4246 28.2874C34.3527 30.0095 35.5854 32.3935 35.8488 35.002L35.8884 35.5266L35.9017 36.0564C35.9017 41.8093 31.2379 46.4731 25.485 46.4731C19.7321 46.4731 15.0684 41.8093 15.0684 36.0564C15.0684 33.2174 16.2134 30.5679 18.1709 28.6389L18.5474 28.2858L18.7121 28.1439L18.7142 11.5772C18.7142 8.09569 21.3419 5.2279 24.7223 4.8489L25.1009 4.8171L25.485 4.8064ZM25.485 7.9314C23.5721 7.9314 22.0034 9.40454 21.8513 11.2783L21.8392 11.5773L21.8382 29.6908L21.196 30.1587C19.3222 31.5243 18.1934 33.6947 18.1934 36.0564C18.1934 40.0835 21.4579 43.3481 25.485 43.3481C29.5121 43.3481 32.7767 40.0835 32.7767 36.0564C32.7767 33.8431 31.7852 31.7976 30.1182 30.4254L29.7757 30.1599L29.134 29.692L29.1309 11.5772C29.1309 9.56369 27.4986 7.9314 25.485 7.9314ZM25.485 17.3064C26.3479 17.3064 27.0475 18.006 27.0475 18.8689L27.0488 31.0868C29.1613 31.751 30.6934 33.7247 30.6934 36.0564C30.6934 38.9329 28.3615 41.2647 25.485 41.2647C22.6086 41.2647 20.2767 38.9329 20.2767 36.0564C20.2767 33.7239 21.8098 31.7497 23.9234 31.0862L23.9225 18.8689C23.9225 18.006 24.6221 17.3064 25.485 17.3064Z" fill="#212121"/>
</svg>
