<svg width="51" height="51" viewBox="0 0 51 51" fill="none" xmlns="http://www.w3.org/2000/svg">
<path d="M37.3561 29.2114C39.9436 29.2114 42.0414 31.3089 42.0414 33.8966V35.0954C42.0414 36.9585 41.3755 38.7602 40.1641 40.1756C36.8945 43.9954 31.9212 45.8804 25.3682 45.8804C18.8144 45.8804 13.8435 43.9948 10.5804 40.1733C9.37257 38.7589 8.70898 36.96 8.70898 35.1V33.8966C8.70898 31.3089 10.8066 29.2114 13.3942 29.2114H37.3561ZM37.3561 32.3364H13.3942C12.5325 32.3364 11.834 33.035 11.834 33.8966V35.1C11.834 36.216 12.2321 37.2954 12.9568 38.1441C15.5679 41.2016 19.6635 42.7554 25.3682 42.7554C31.073 42.7554 35.1722 41.2016 37.7899 38.1435C38.5168 37.2943 38.9164 36.2131 38.9164 35.0954V33.8966C38.9164 33.035 38.2178 32.3364 37.3561 32.3364ZM25.3682 4.22119C31.1211 4.22119 35.7849 8.8849 35.7849 14.6379C35.7849 20.3908 31.1211 25.0545 25.3682 25.0545C19.6153 25.0545 14.9516 20.3908 14.9516 14.6379C14.9516 8.8849 19.6153 4.22119 25.3682 4.22119ZM25.3682 7.34619C21.3412 7.34619 18.0766 10.6108 18.0766 14.6379C18.0766 18.6649 21.3412 21.9295 25.3682 21.9295C29.3953 21.9295 32.6599 18.6649 32.6599 14.6379C32.6599 10.6108 29.3953 7.34619 25.3682 7.34619Z" fill="#212121"/>
</svg>
